<?xml version="1.0" encoding="UTF-8"?>
<svg width="817px" height="384px" viewBox="0 0 817 384" version="1.1" xmlns="http://www.w3.org/2000/svg" xmlns:xlink="http://www.w3.org/1999/xlink">
    <!-- Generator: Sketch 48.2 (47327) - http://www.bohemiancoding.com/sketch -->
    <title>Group 12</title>
    <desc>Created with Sketch.</desc>
    <defs>
        <polygon id="path-1" points="0.108440367 0.0362493949 85.9743976 0.0362493949 85.9743976 216.561056 0.108440367 216.561056"></polygon>
        <polygon id="path-3" points="0.118123084 0.0362134213 92.365869 0.0362134213 92.365869 216.081408 0.118123084 216.081408"></polygon>
        <polygon id="path-5" points="0.0415134313 0.0703188854 203.898517 0.0703188854 203.898517 66.9126511 0.0415134313 66.9126511"></polygon>
        <polygon id="path-7" points="0.044232742 0.0703188854 203.901236 0.0703188854 203.901236 66.9126511 0.044232742 66.9126511"></polygon>
    </defs>
    <g id="Desktop" stroke="none" stroke-width="1" fill="none" fill-rule="evenodd" transform="translate(-104.000000, -111.000000)">
        <g id="Group-12" transform="translate(104.000000, 111.000000)">
            <g id="Page-1">
                <path d="M305.594172,216.198874 L341.604985,216.198874 L341.604985,35.1720525 L366.201803,35.1720525 L366.201803,3.8011257 L279.798197,3.8011257 L279.798197,35.1720525 L305.594172,35.1720525 L305.594172,216.198874 Z M343.403182,218 L303.795975,218 L303.795975,36.9731782 L278,36.9731782 L278,2 L368,2 L368,36.9731782 L343.403182,36.9731782 L343.403182,218 Z" id="Fill-1" fill="#FFFFFF"></path>
                <path d="M485.655371,133.096669 L490.247183,133.096669 L487.886969,69.0521242 L485.655371,133.096669 Z M492.105952,134.894972 L483.800423,134.894972 L486.96672,44.0198579 L488.756943,44.0180596 L492.105952,134.894972 Z M497.979974,215.201696 L533.036858,215.201696 L513.630539,2.7983036 L461.608757,2.7983036 L442.956216,215.201696 L477.801368,215.201696 L480.980443,172.372219 L494.743339,172.327022 L497.979974,215.201696 Z M535,217 L496.319322,217 L493.083045,174.1306 L482.643603,174.165247 L479.46417,217 L441,217 L441.085982,216.021963 L459.896396,1.82026622 L459.968286,1 L515.265038,1 L535,217 Z" id="Fill-2" fill="#FFFFFF"></path>
                <polygon id="Fill-3" fill="#FFFFFF" points="234 174 236 174 236 152 234 152"></polygon>
                <g id="Group-20">
                    <path d="M189.895766,131.411947 L189.895646,192.516819 L189.883049,193.16962 C189.843939,198.916402 191.899035,204.022375 195.826514,207.924791 C199.627304,211.701299 205.014825,214.066323 210.99668,214.584103 L211.010477,214.585422 C211.093617,214.593816 219.45377,215.43308 230.5255,215.357056 L230.60576,215.356576 C241.683968,215.280672 251.223553,214.318378 251.31869,214.308545 C257.325139,213.707187 262.497433,211.29084 266.278068,207.320194 C269.981801,203.430489 272.003546,198.399821 272.139713,192.74717 L272.040497,192.669467 L272.040497,192.231309 L272.030539,127.575842 C272.02958,121.537914 270.587173,115.498906 267.85964,110.11162 C265.131988,104.724214 261.117651,99.9862516 256.250562,96.4097565 L233.760028,79.8821669 L233.658413,79.7863572 C228.840152,76.3224595 226.078069,70.8760569 226.078069,64.8334518 L226.093065,53.667487 L226.093065,44.2355695 C226.093065,41.3591207 228.434412,39.0190382 231.312147,39.0190382 C234.190003,39.0190382 236.53135,41.3591207 236.53135,44.2355695 L236.53135,53.6686861 L236.537588,73.5957807 L272.0273,73.5957807 L272.02742,24.7041845 L272.040017,24.0512637 C272.079248,18.3046014 270.024031,13.1986289 266.096672,9.29621309 C262.295763,5.51958493 256.908241,3.15468064 250.926386,2.63690066 L250.912709,2.63558163 C250.829569,2.62706788 242.465457,1.78900297 231.397686,1.86394796 L231.318026,1.86454752 C220.239218,1.94021199 210.699633,2.90274554 210.604496,2.91245842 C204.597927,3.51381705 199.425753,5.9302835 195.645118,9.90080935 C191.941265,13.7906344 189.91964,18.821542 189.783473,24.4740734 L189.882689,24.5516564 L189.881849,79.3706223 C189.691456,83.8821911 190.849892,88.6090019 193.231549,93.0399898 C195.464203,97.1937411 198.697771,100.99735 202.58362,104.041315 L212.512989,111.09214 L228.169876,123.313091 C230.546375,125.168129 232.501176,127.580639 233.822893,130.28981 C235.144489,132.998742 235.842238,136.023882 235.840919,139.03787 L235.830001,163.552677 L235.830001,172.985434 C235.830001,175.861763 233.488774,178.201966 230.610919,178.201966 C227.733063,178.201966 225.391837,175.861763 225.391837,172.985434 L225.391837,163.552318 L225.385598,131.411947 L189.895766,131.411947 Z M229.107687,217.160532 C218.79873,217.160652 211.128888,216.404967 210.83568,216.375588 C197.35362,215.206446 187.99831,205.654977 188.083729,193.146357 L188.096206,192.489839 L188.096206,129.613267 L227.184798,129.613267 L227.191396,172.985434 C227.191396,174.870091 228.72546,176.403286 230.610919,176.403286 C232.496497,176.403286 234.030442,174.870091 234.030442,172.985434 L234.030442,163.552318 L234.041359,139.03703 C234.042559,136.295003 233.407674,133.542783 232.205329,131.077992 C231.002863,128.613321 229.224538,126.418332 227.062188,124.730691 L211.421496,112.522451 L201.490807,105.470546 C197.403168,102.272374 193.999001,98.2682725 191.646257,93.891245 C189.115237,89.182421 187.883259,84.1419205 188.08313,79.3140239 L188.08313,25.4279733 L187.974076,25.3427158 L187.977076,24.9007202 C188.020145,18.6040217 190.220886,12.9883033 194.341518,8.66067954 C198.423278,4.37406568 203.984157,1.76753872 210.423221,1.12289186 C210.517278,1.1132989 220.137483,0.142131683 231.305789,0.0658676568 L231.385569,0.0652680968 C242.405352,-0.0095569857 250.777742,0.814358306 251.087266,0.8452956 C264.569326,2.01455743 273.924756,11.5661471 273.839457,24.0746465 L273.82686,24.7297257 L273.82686,75.3944606 L234.738508,75.3944606 L234.73179,44.2355695 C234.73179,42.3509128 233.197726,40.817718 231.312147,40.817718 C229.426569,40.817718 227.892624,42.3509128 227.892624,44.2355695 L227.892624,53.6686861 L227.877628,64.8346509 C227.877628,70.3088732 230.384414,75.2386949 234.754944,78.3589249 L234.804852,78.3946586 L234.914985,78.4985024 L257.316501,94.9605002 C262.409735,98.7033132 266.610746,103.661554 269.465327,109.299456 C272.319789,114.937118 273.829019,121.25684 273.830099,127.575603 L273.839937,191.792911 L273.94911,191.878168 L273.945991,192.320164 C273.903041,198.616982 271.7023,204.2327 267.581669,208.560324 C263.499908,212.846938 257.939029,215.453345 251.499965,216.098112 C251.405788,216.107705 241.785703,217.078752 230.617277,217.155256 L230.536897,217.155736 C230.055575,217.158973 229.578692,217.160532 229.107687,217.160532 Z" id="Fill-4" fill="#FFFFFF"></path>
                    <g id="Group-8" transform="translate(350.554185, 1.438944)">
                        <mask id="mask-2" fill="white">
                            <use xlink:href="#path-1"></use>
                        </mask>
                        <g id="Clip-7"></g>
                        <path d="M1.92105373,130.812387 L1.92093376,191.917139 L1.90857678,192.57006 C1.86934639,198.316842 3.9244433,203.422935 7.85192186,207.325231 C11.6527114,211.101739 17.0402326,213.466883 23.0220882,213.984663 L23.0357649,213.985982 C23.1189045,213.994376 31.4842167,214.834959 42.5507877,214.757616 L42.6297283,214.757016 C53.7092561,214.681232 63.2488408,213.718818 63.3439775,213.708985 C69.3505471,213.107747 74.522721,210.69128 78.3034755,206.720754 C82.0072088,202.830929 84.0288339,197.800261 84.1650006,192.14761 L84.0657849,192.069907 L84.0657849,191.631629 L84.0558273,1.83492926 L47.8662064,1.83492926 L47.8554091,162.952758 L47.8554091,172.385874 C47.8554091,175.262323 45.5140622,177.602526 42.6363267,177.602526 C39.7584712,177.602526 37.4171244,175.262323 37.4171244,172.385874 L37.4171244,162.952758 L37.4108859,130.812387 L1.92105373,130.812387 Z M41.1356141,216.561092 C30.8012239,216.561212 23.1195044,215.802169 22.8591681,215.776028 C9.37842818,214.605807 0.0238381645,205.054697 0.109017313,192.546917 L0.121494258,191.891958 L0.121494258,129.013707 L39.2099655,129.013707 L39.2166838,172.385874 C39.2166838,174.270531 40.7507483,175.803846 42.6363267,175.803846 C44.5219051,175.803846 46.0558496,174.270531 46.0558496,172.385874 L46.0558496,162.952758 L46.0667669,0.0362493949 L85.8553868,0.0362493949 L85.8553868,0.935469417 L85.8653443,191.193351 L85.9743976,191.278608 L85.9713984,191.720604 C85.9283289,198.017422 83.7277076,203.63314 79.6069564,207.960764 C75.5253156,212.247378 69.9643169,214.853905 63.5251332,215.498552 C63.4311962,215.508145 53.8109912,216.479312 42.6425652,216.555696 L42.5636245,216.556296 C42.0827822,216.559533 41.605899,216.561092 41.1356141,216.561092 Z" id="Fill-6" fill="#FFFFFF" mask="url(#mask-2)"></path>
                    </g>
                    <g id="Group-11" transform="translate(724.622614, 1.079208)">
                        <mask id="mask-4" fill="white">
                            <use xlink:href="#path-3"></use>
                        </mask>
                        <g id="Clip-10"></g>
                        <path d="M53.3538911,214.282728 L90.5663815,214.282728 L90.5663815,1.83489329 L54.4552215,1.83489329 L54.4552215,91.00133 L52.6670592,91.1447448 L38.2408307,1.83489329 L1.91768256,1.83489329 L1.91768256,214.282728 L35.3798911,214.282728 L35.3798911,120.387682 L37.1663737,120.235154 L53.3538911,214.282728 Z M92.365941,216.081408 L51.8373423,216.081408 L37.1794505,130.919792 L37.1794505,216.081408 L0.118123084,216.081408 L0.118123084,0.0362134213 L39.7730956,0.0362134213 L39.8952257,0.792138614 L52.655662,79.7887195 L52.655662,0.0362134213 L92.365941,0.0362134213 L92.365941,216.081408 Z" id="Fill-9" fill="#FFFFFF" mask="url(#mask-4)"></path>
                    </g>
                    <path d="M1.79955947,215.325171 L84.6692731,215.325171 L84.6692731,183.996725 L38.3494521,183.996725 L38.3494521,3.12591375 L1.79955947,3.12591375 L1.79955947,215.325171 Z M86.4688326,217.123851 L0,217.123851 L0,1.32723388 L40.1490116,1.32723388 L40.1490116,182.198045 L86.4688326,182.198045 L86.4688326,217.123851 Z" id="Fill-12" fill="#FFFFFF"></path>
                    <path d="M135.556616,133.239669 L140.169487,133.239669 L137.798387,69.1817244 L135.556616,133.239669 Z M142.03695,135.038349 L133.692992,135.038349 L136.873894,44.1442206 L138.672373,44.1424219 L142.03695,135.038349 Z M147.938065,215.361876 L183.156644,215.361876 L163.660696,2.91404125 L111.39897,2.91404125 L92.6603969,215.361876 L127.666268,215.361876 L130.860006,172.523437 L144.686501,172.47823 L147.938065,215.361876 Z M185.128721,217.160556 L146.269633,217.160556 L143.018549,174.282186 L132.530837,174.316841 L129.336739,217.160556 L90.695278,217.160556 L109.751053,1.11536139 L165.302854,1.11536139 L185.128721,217.160556 Z" id="Fill-14" fill="#FFFFFF"></path>
                    <path d="M581.723879,44.2327756 L581.723879,132.507187 C586.111085,130.94977 588.248122,126.540846 588.248122,119.076804 L588.248122,57.6642376 C588.248122,53.6064158 587.586724,50.387978 586.282403,48.0982585 C585.204707,46.2062871 583.706754,44.9337811 581.723879,44.2327756 Z M579.92432,134.835638 L579.92432,41.9052838 L581.02709,42.1606964 C587.012784,43.546879 590.047681,48.7629307 590.047681,57.6642376 L590.047681,119.076804 C590.047681,127.978111 587.012784,133.194163 581.02709,134.580226 L579.92432,134.835638 Z M544.764167,215.361936 L579.92432,215.361936 L579.92432,173.624289 L580.826259,173.626328 C581.300143,173.628246 581.769108,173.620452 582.224277,173.613737 L582.695881,173.606902 L582.707638,173.607142 C591.422185,173.722617 598.724677,172.891867 604.412965,171.134197 C610.010555,169.404586 614.182293,166.733906 616.81241,163.196263 C622.383126,155.699845 625.207834,142.646705 625.207834,124.399578 L625.207834,52.3414642 C625.207834,32.4553795 621.771396,19.1437096 614.993655,12.7760231 L614.993775,12.776143 C611.612642,9.60075358 607.261188,7.18236854 602.060821,5.58777888 C596.813065,3.97855996 590.555157,3.16279868 583.460934,3.16279868 L545.230973,3.16279868 C544.973636,3.16279868 544.764167,3.37024642 544.764167,3.62529923 L544.764167,215.361936 Z M581.723879,217.160616 L542.964607,217.160616 L542.964607,3.62529923 C542.964607,2.37845435 543.981238,1.36411881 545.230973,1.36411881 L583.460934,1.36411881 C590.734153,1.36411881 597.169618,2.20650055 602.588571,3.86812101 C608.054313,5.544011 612.64259,8.10005501 616.226113,11.4652651 L616.226233,11.465385 C619.83411,14.8550572 622.56848,20.0411309 624.353523,26.879352 C626.114572,33.6259604 627.007394,42.192593 627.007394,52.3414642 L627.007394,124.399578 C627.007394,133.686641 626.279292,141.736094 624.843124,148.324178 C623.393518,154.974018 621.177541,160.33864 618.256856,164.268876 C615.393877,168.119729 610.915013,171.00769 604.944555,172.852656 C599.078831,174.665125 591.591344,175.523216 582.695881,175.405822 L582.25115,175.412177 C582.077433,175.414695 581.901556,175.417453 581.723879,175.419492 L581.723879,217.160616 Z" id="Fill-16" fill="#FFFFFF"></path>
                    <path d="M668.466161,133.239669 L673.079152,133.239669 L670.708052,69.1817244 L668.466161,133.239669 Z M674.946494,135.038349 L666.602657,135.038349 L669.783558,44.1442206 L671.582038,44.1424219 L674.946494,135.038349 Z M680.84761,215.361876 L716.066188,215.361876 L696.570361,2.91404125 L644.308635,2.91404125 L625.570062,215.361876 L660.575932,215.361876 L663.76967,172.523437 L677.596166,172.47823 L680.84761,215.361876 Z M718.038386,217.160556 L679.179298,217.160556 L675.928214,174.282186 L665.440501,174.316841 L662.246403,217.160556 L623.604823,217.160556 L623.691202,216.182314 L642.588376,1.93579923 L642.660598,1.11536139 L698.212399,1.11536139 L718.038386,217.160556 Z" id="Fill-18" fill="#FFFFFF"></path>
                </g>
            </g>
            <g id="Page-1" transform="translate(1.000000, 252.000000)">
                <path d="M408,132 C182.667785,132 0,123.269494 0,112.5 C0,101.730403 182.667785,93 408,93 C633.332215,93 816,101.730403 816,112.5 C816,123.269494 633.332215,132 408,132" id="Fill-1" fill="#FFFFFF"></path>
                <path d="M714.000052,55 C672.026438,55 638,51.4182233 638,46.9998997 C638,42.5816764 672.026438,39 714.000052,39 C755.973666,39 790,42.5816764 790,46.9998997 C790,51.4182233 755.973666,55 714.000052,55" id="Fill-3" fill="#FFFFFF"></path>
                <path d="M304,53.3425956 C251.581034,53.3425956 208.398177,30.0164117 202.650403,0 C202.221215,2.24126893 202,4.51975546 202,6.82870221 C202,40.060382 247.66703,67 304,67 C360.333073,67 406,40.060382 406,6.82870221 C406,4.51975546 405.778785,2.24126893 405.349597,0 C399.601823,30.0164117 356.418966,53.3425956 304,53.3425956" id="Fill-5" fill="#FFFFFF"></path>
                <path d="M102.361166,67 C45.8287304,67 0,40.060382 0,6.82870221 C0,4.51975546 0.22199878,2.24126893 0.652809323,0 C6.42093572,30.0164117 49.7565929,53.3425956 102.361166,53.3425956 L210.965399,53.3425956 L237,67 L102.361166,67 Z" id="Fill-7" fill="#FFFFFF"></path>
                <g id="Group-11" transform="translate(396.000000, 0.000000)">
                    <mask id="mask-6" fill="white">
                        <use xlink:href="#path-5"></use>
                    </mask>
                    <g id="Clip-10"></g>
                    <path d="M101.969964,13.6955675 C154.352159,13.6955675 197.504725,36.96697 203.248467,66.9126511 C203.677353,64.6767594 203.898517,62.4036341 203.898517,60.1001201 C203.898517,26.9465288 158.263417,0.0702981424 101.969964,0.0702981424 C45.6765099,0.0702981424 0.0415134313,26.9465288 0.0415134313,60.1001201 C0.0415134313,62.4036341 0.262573746,64.6767594 0.691459706,66.9126511 C6.43520223,36.96697 49.5877679,13.6955675 101.969964,13.6955675" id="Fill-9" fill="#FFFFFF" mask="url(#mask-6)"></path>
                </g>
                <g id="Group-14" transform="translate(612.000000, 0.000000)">
                    <mask id="mask-8" fill="white">
                        <use xlink:href="#path-7"></use>
                    </mask>
                    <g id="Clip-13"></g>
                    <path d="M101.972786,13.6955675 C154.354982,13.6955675 197.507547,36.96697 203.251187,66.9126511 C203.680176,64.6767594 203.901236,62.4036341 203.901236,60.1001201 C203.901236,26.9465288 158.26624,0.0702981424 101.972786,0.0702981424 C45.6792292,0.0702981424 0.044232742,26.9465288 0.044232742,60.1001201 C0.044232742,62.4036341 0.265396452,64.6767594 0.694282413,66.9126511 C6.43792154,36.96697 49.5905906,13.6955675 101.972786,13.6955675" id="Fill-12" fill="#FFFFFF" mask="url(#mask-8)"></path>
                </g>
            </g>
        </g>
    </g>
</svg>