<?xml version="1.0" encoding="UTF-8"?>
<svg width="144px" height="46px" viewBox="0 0 144 46" version="1.1" xmlns="http://www.w3.org/2000/svg" xmlns:xlink="http://www.w3.org/1999/xlink">
    <!-- Generator: Sketch 48.2 (47327) - http://www.bohemiancoding.com/sketch -->
    <title>Group 9</title>
    <desc>Created with Sketch.</desc>
    <defs>
        <path d="M59.9,3.5 L59.9,8.6 C59.9,10.1 59.2,11 58,11 C56.8,11 56.1,10.1 56.1,8.6 L56.1,3.5 L54.3,3.5 L54.3,8.6 C54.3,11.2 55.8,12.7 58,12.7 C60.3,12.7 61.7,11.2 61.7,8.5 L61.7,3.4 L59.9,3.4 L59.9,3.5 Z M69.5,3.5 L69.5,7.3 C69.5,7.8 69.5,8.9 69.5,9.3 C69.4,9.1 69.1,8.6 68.9,8.3 L65.7,3.5 L64,3.5 L64,12.6 L65.8,12.6 L65.8,8.6 C65.8,8.1 65.8,6.9 65.8,6.6 C65.9,6.8 66.2,7.3 66.4,7.6 L69.7,12.6 L71.3,12.6 L71.3,3.5 L69.5,3.5 Z M75.5,5.3 L76.5,5.3 C78.4,5.3 79.2,6.2 79.2,8.1 C79.2,9.8 78.3,10.9 76.4,10.9 L75.5,10.9 L75.5,5.3 Z M73.7,3.5 L73.7,12.6 L76.4,12.6 C78.7,12.6 81.1,11.3 81.1,8.1 C81.1,4.8 79.2,3.6 76.6,3.6 L73.7,3.6 L73.7,3.5 Z M91.6,3.5 L91.6,12.6 L97.1,12.6 L97.1,10.8 L93.5,10.8 L93.5,3.5 L91.6,3.5 Z M113.1,3.5 L113.1,8.6 C113.1,10.1 112.4,11 111.2,11 C110,11 109.3,10.1 109.3,8.6 L109.3,3.5 L107.5,3.5 L107.5,8.6 C107.5,11.2 109,12.7 111.2,12.7 C113.5,12.7 114.9,11.2 114.9,8.5 L114.9,3.4 L113.1,3.4 L113.1,3.5 Z M119,5.3 L120,5.3 C121.9,5.3 122.7,6.2 122.7,8.1 C122.7,9.8 121.8,10.9 119.9,10.9 L119,10.9 L119,5.3 Z M117.2,3.5 L117.2,12.6 L119.9,12.6 C122.2,12.6 124.6,11.3 124.6,8.1 C124.6,4.8 122.7,3.6 120.1,3.6 L117.2,3.6 L117.2,3.5 Z M36.5,6.1 C36.5,7.9 37.7,8.4 39.3,8.8 C41,9.2 41.3,9.4 41.3,10 C41.3,10.7 40.8,11 39.7,11 C38.8,11 38,10.7 37.4,10 L36.1,11.2 C36.8,12.2 38.1,12.9 39.6,12.9 C42.1,12.9 43.2,11.7 43.2,10 C43.2,8 41.6,7.5 40.2,7.2 C38.8,6.9 38.4,6.7 38.4,6.1 C38.4,5.7 38.7,5.3 39.7,5.3 C40.5,5.3 41.2,5.6 41.8,6.2 L43.1,4.9 C42.2,4 41.2,3.5 39.8,3.5 C37.9,3.4 36.5,4.4 36.5,6.1 Z M46.5,8.1 C46.5,6.5 47.1,5.2 48.6,5.2 C50.1,5.2 50.7,6.5 50.7,8.1 C50.7,9.7 50.1,11 48.6,11 C47.1,11 46.5,9.7 46.5,8.1 Z M44.6,8.1 C44.6,10.9 46.1,12.8 48.5,12.8 C51,12.8 52.5,10.9 52.5,8.1 C52.5,5.3 51,3.4 48.5,3.4 C46.1,3.4 44.6,5.3 44.6,8.1 Z M82.6,8.1 C82.6,11 84.2,12.8 86.6,12.8 C88.3,12.8 89.3,12 90,10.7 L88.5,9.8 C88,10.6 87.5,11 86.7,11 C85.3,11 84.5,9.8 84.5,8.1 C84.5,6.4 85.3,5.2 86.6,5.2 C87.4,5.2 87.9,5.6 88.3,6.2 L90,5.4 C89.4,4.2 88.4,3.4 86.7,3.4 C84.3,3.4 82.6,5.3 82.6,8.1 Z M99.8,8.1 C99.8,6.5 100.4,5.2 101.9,5.2 C103.4,5.2 104,6.5 104,8.1 C104,9.7 103.4,11 101.9,11 C100.4,11 99.8,9.7 99.8,8.1 Z M97.9,8.1 C97.9,10.9 99.4,12.8 101.8,12.8 C104.3,12.8 105.7,10.9 105.7,8.1 C105.7,5.3 104.2,3.4 101.8,3.4 C99.4,3.4 97.9,5.3 97.9,8.1 Z M0.2,8.7 L0,10.5 L0.2,12.3 C0.2,12.4 0.3,12.4 0.3,12.4 C0.4,12.4 0.4,12.3 0.4,12.3 L0.7,10.5 L0.4,8.7 C0.4,8.6 0.3,8.6 0.3,8.6 C0.3,8.6 0.2,8.6 0.2,8.7 Z M1.4,7.6 L1.1,10.5 L1.4,13.4 C1.4,13.5 1.5,13.5 1.5,13.5 C1.6,13.5 1.6,13.4 1.6,13.4 L2,10.5 L1.6,7.6 C1.6,7.5 1.5,7.5 1.5,7.5 C1.5,7.4 1.4,7.5 1.4,7.6 Z M5.2,7.2 L5,10.5 L5.2,14 C5.2,14.1 5.3,14.2 5.4,14.2 C5.5,14.2 5.6,14.1 5.6,14 L6,10.5 L5.7,7.2 C5.7,7.1 5.6,7 5.5,7 C5.3,7 5.2,7.1 5.2,7.2 Z M2.7,7 L2.4,10.5 L2.7,13.8 C2.7,13.9 2.8,14 2.9,14 C2.9,14 3,13.9 3,13.8 L3.3,10.5 L3,7 C3,6.9 2.9,6.8 2.8,6.8 C2.8,6.9 2.7,6.9 2.7,7 Z M3.9,6.9 L3.6,10.5 L3.9,13.9 C3.9,14 4,14.1 4.1,14.1 C4.2,14.1 4.3,14 4.3,13.9 L4.6,10.5 L4.3,6.9 C4.3,6.8 4.2,6.7 4.1,6.7 C4,6.7 4,6.8 3.9,6.9 Z M6.5,5.1 L6.2,10.5 L6.5,14 C6.5,14.1 6.6,14.2 6.7,14.2 C6.9,14.2 7,14.1 7,14 L7.3,10.5 L7,5.1 C7,5 6.9,4.9 6.8,4.9 C6.6,4.9 6.5,5 6.5,5.1 Z M7.8,3.9 L7.6,10.5 L7.8,14 C7.8,14.2 7.9,14.3 8.1,14.3 C8.2,14.3 8.4,14.2 8.4,14 L8.7,10.5 L8.4,3.9 C8.4,3.7 8.3,3.6 8.1,3.6 C7.9,3.6 7.8,3.7 7.8,3.9 Z M13.1,3.6 L12.9,10.5 L13.1,13.8 C13.1,14 13.3,14.2 13.5,14.2 C13.7,14.2 13.9,14 13.9,13.8 L14.1,10.5 L13.9,3.5 C13.9,3.3 13.7,3.1 13.5,3.1 C13.2,3.2 13.1,3.3 13.1,3.6 Z M9.1,3.3 L8.9,10.5 L9.1,13.9 C9.1,14.1 9.2,14.2 9.4,14.2 C9.6,14.2 9.7,14.1 9.7,13.9 L9.9,10.5 L9.7,3.3 C9.7,3.1 9.6,3 9.4,3 C9.2,3 9.1,3.2 9.1,3.3 Z M11.7,3.3 L11.5,10.5 L11.7,13.9 C11.7,14.1 11.9,14.3 12.1,14.3 C12.3,14.3 12.5,14.1 12.5,13.9 L12.7,10.5 L12.5,3.3 C12.5,3.1 12.3,2.9 12.1,2.9 C11.9,2.9 11.7,3.1 11.7,3.3 Z M10.4,3.1 L10.2,10.5 L10.4,13.9 C10.4,14.1 10.5,14.2 10.7,14.2 C10.9,14.2 11,14.1 11,13.9 L11.2,10.5 L11,3.1 C11,2.9 10.8,2.8 10.7,2.8 C10.6,2.8 10.4,2.9 10.4,3.1 Z M14.4,2.2 L14.2,10.5 C14.2,10.5 14.4,13.8 14.4,13.8 C14.4,14 14.6,14.2 14.8,14.2 C15,14.2 15.2,14 15.2,13.8 L15.4,10.5 L15.2,2.2 C15.2,2 15,1.8 14.8,1.8 C14.6,1.8 14.4,2 14.4,2.2 Z M15.8,1.5 L15.6,10.5 L15.8,13.8 C15.8,14 16,14.2 16.2,14.2 C16.4,14.2 16.6,14 16.6,13.8 L16.8,10.5 L16.6,1.5 C16.6,1.3 16.4,1.1 16.2,1.1 C16,1 15.8,1.2 15.8,1.5 Z M17.4,0.6 C17.1,0.7 17,0.8 17,1.1 L17,13.8 C17,14 17.2,14.2 17.4,14.3 C17.4,14.3 28.4,14.3 28.5,14.3 C30.7,14.3 32.5,12.5 32.5,10.3 C32.5,8.1 30.7,6.3 28.5,6.3 C28,6.3 27.4,6.4 27,6.6 C26.7,3 23.7,0.2 20,0.2 C19.1,0.1 18.2,0.3 17.4,0.6 Z" id="path-1"></path>
    </defs>
    <g id="Desktop" stroke="none" stroke-width="1" fill="none" fill-rule="evenodd" transform="translate(-579.000000, -585.000000)">
        <g id="Group-10" transform="translate(136.000000, 584.000000)">
            <g id="Group-9" transform="translate(443.000000, 1.000000)">
                <g id="Group-2">
                    <rect id="Rectangle-2-Copy" fill="#FFFFFF" x="0" y="0" width="144" height="46" rx="3"></rect>
                    <g id="music-service_soundcloud" transform="translate(8.000000, 15.000000)">
                        <mask id="mask-2" fill="white">
                            <use xlink:href="#path-1"></use>
                        </mask>
                        <use id="SVGID_1_" fill="#000000" xlink:href="#path-1"></use>
                        <rect id="Rectangle-path" fill="#000000" fill-rule="nonzero" mask="url(#mask-2)" x="0" y="-13" width="124.5" height="39.4"></rect>
                    </g>
                </g>
            </g>
        </g>
    </g>
</svg>