<?xml version="1.0" encoding="UTF-8"?>
<svg width="124px" height="46px" viewBox="0 0 124 46" version="1.1" xmlns="http://www.w3.org/2000/svg" xmlns:xlink="http://www.w3.org/1999/xlink">
    <!-- Generator: Sketch 48.2 (47327) - http://www.bohemiancoding.com/sketch -->
    <title>Group 13</title>
    <desc>Created with Sketch.</desc>
    <defs></defs>
    <g id="Desktop" stroke="none" stroke-width="1" fill="none" fill-rule="evenodd" transform="translate(-743.000000, -585.000000)">
        <g id="Group-10" transform="translate(136.000000, 584.000000)">
            <g id="Group-13" transform="translate(607.000000, 1.000000)">
                <rect id="Rectangle-2-Copy-4" fill="#FFFFFF" x="0" y="0" width="124" height="46" rx="3"></rect>
                <path d="M13.0181818,29 L13.0181818,15.9090909 L17.8290909,15.9090909 C19.2690981,15.9090909 20.3327238,16.1599975 21.02,16.6618182 C21.7072762,17.1636389 22.0509091,17.9381766 22.0509091,18.9854545 L22.0509091,19.5909091 C22.0509091,20.256367 21.8954561,20.7690891 21.5845455,21.1290909 C21.2736348,21.4890927 20.7963669,21.7236358 20.1527273,21.8327273 L20.1527273,22.3072727 C20.88364,22.3836367 21.4509071,22.6427251 21.8545455,23.0845455 C22.2581838,23.5263658 22.46,24.0854512 22.46,24.7618182 L22.46,25.58 C22.46,26.7472786 22.0836401,27.6090881 21.3309091,28.1654545 C20.5781781,28.721821 19.410917,29 17.8290909,29 L13.0181818,29 Z M15.8,21.2436364 L17.6490909,21.2436364 C18.2381848,21.2436364 18.6609078,21.1427283 18.9172727,20.9409091 C19.1736376,20.7390899 19.3018182,20.4036387 19.3018182,19.9345455 L19.3018182,19.2472727 C19.3018182,18.7781795 19.1736376,18.4454555 18.9172727,18.2490909 C18.6609078,18.0527263 18.2381848,17.9545455 17.6490909,17.9545455 L15.8,17.9545455 L15.8,21.2436364 Z M15.8,26.9545455 L17.6981818,26.9545455 C18.4181854,26.9545455 18.9281803,26.8372739 19.2281818,26.6027273 C19.5281833,26.3681806 19.6781818,25.9727301 19.6781818,25.4163636 L19.6781818,24.6636364 C19.6781818,24.1181791 19.5281833,23.728183 19.2281818,23.4936364 C18.9281803,23.2590897 18.4181854,23.1418182 17.6981818,23.1418182 L15.8,23.1418182 L15.8,26.9545455 Z M29.1363636,29.1636364 C27.5436284,29.1636364 26.3681856,28.7790948 25.61,28.01 C24.8518144,27.2409052 24.4727273,26.060008 24.4727273,24.4672727 L24.4727273,15.9090909 L27.2545455,15.9090909 L27.2545455,24.3527273 C27.2545455,25.3127321 27.3990895,25.9754527 27.6881818,26.3409091 C27.9772742,26.7063655 28.4599966,26.8890909 29.1363636,26.8890909 C29.8127307,26.8890909 30.2954531,26.7063655 30.5845455,26.3409091 C30.8736378,25.9754527 31.0181818,25.3127321 31.0181818,24.3527273 L31.0181818,15.9090909 L33.8,15.9090909 L33.8,24.4672727 C33.8,26.060008 33.4209129,27.2409052 32.6627273,28.01 C31.9045417,28.7790948 30.7290989,29.1636364 29.1363636,29.1636364 Z M41.9818182,29 L39.2,29 L39.2,24.0909091 L35.0927273,15.9090909 L37.9236364,15.9090909 L40.6072727,21.7672727 L43.2581818,15.9090909 L46.0727273,15.9090909 L41.9818182,24.0909091 L41.9818182,29 Z M65.2836364,29 L61.7327273,29 L58.0836364,15.9090909 L60.8818182,15.9090909 L63.5,26.7581818 L66.2490909,15.9090909 L68.9327273,15.9090909 L65.2836364,29 Z M70.2909091,29 L70.2909091,26.84 L73.5636364,26.84 L73.5636364,18.0690909 L70.2909091,18.0690909 L70.2909091,15.9090909 L79.6181818,15.9090909 L79.6181818,18.0690909 L76.3454545,18.0690909 L76.3454545,26.84 L79.6181818,26.84 L79.6181818,29 L70.2909091,29 Z M87.7018182,29 L84.1345455,19.6727273 L84.1345455,29 L81.7454545,29 L81.7454545,15.9090909 L84.9036364,15.9090909 L88.6836364,25.7927273 L88.6836364,15.9090909 L91.0727273,15.9090909 L91.0727273,29 L87.7018182,29 Z M99.2545455,29 L96.4727273,29 L96.4727273,24.0909091 L92.3654545,15.9090909 L95.1963636,15.9090909 L97.88,21.7672727 L100.530909,15.9090909 L103.345455,15.9090909 L99.2545455,24.0909091 L99.2545455,29 Z M105.472727,29 L105.472727,15.9090909 L108.254545,15.9090909 L108.254545,26.84 L113.981818,26.84 L113.981818,29 L105.472727,29 Z" id="BUY-VINYL" fill="#000000"></path>
            </g>
        </g>
    </g>
</svg>
