<?xml version="1.0" encoding="UTF-8"?>
<svg width="120px" height="46px" viewBox="0 0 120 46" version="1.1" xmlns="http://www.w3.org/2000/svg" xmlns:xlink="http://www.w3.org/1999/xlink">
    <!-- Generator: Sketch 48.2 (47327) - http://www.bohemiancoding.com/sketch -->
    <title>Group 5</title>
    <desc>Created with Sketch.</desc>
    <defs></defs>
    <g id="Desktop" stroke="none" stroke-width="1" fill="none" fill-rule="evenodd" transform="translate(-136.000000, -585.000000)">
        <g id="Group-10" transform="translate(136.000000, 584.000000)">
            <g id="Group-5" transform="translate(0.000000, 1.000000)">
                <rect id="Rectangle-2" fill="#FFFFFF" x="0" y="0" width="120" height="46" rx="3"></rect>
                <g id="music-service_spotify" transform="translate(9.000000, 7.000000)" fill-rule="nonzero">
                    <g id="icons" transform="translate(0.000000, 1.000000)">
                        <g id="Group">
                            <g id="Shape">
                                <path d="M22.7580472,21.5407895 C23.0295118,21.1073684 22.8881575,20.5405263 22.4472283,20.2736842 C18.4812756,17.8910526 13.5643937,17.3368421 7.83231496,18.6252632 C7.32713386,18.7381579 7.01229921,19.2323684 7.12634646,19.7289474 C7.242,20.2247368 7.7455748,20.5365789 8.24995276,20.4221053 C13.4872913,19.2465789 17.935937,19.7257895 21.4689921,21.8486842 C21.9107244,22.1139474 22.488189,21.9773684 22.7580472,21.5407895 Z" fill="#FFFFFF"></path>
                                <path d="M26.686252,12.8368421 C27.0822047,12.1807895 26.8621417,11.3313158 26.1947244,10.9413158 C20.6112283,7.68315789 11.7741732,7.37605263 6.45973228,8.96289474 C5.71601575,9.18473684 5.2975748,9.95763158 5.52165354,10.6886842 C5.74653543,11.4197368 6.53362205,11.8318421 7.27653543,11.6107895 C11.9082992,10.2292105 19.9076693,10.4897368 24.7586929,13.3207895 C25.4253071,13.7107895 26.2911024,13.4944737 26.686252,12.8368421 Z" fill="#FFFFFF"></path>
                                <path d="M24.2197795,15.93 C19.5743622,13.1242105 12.7781102,12.3347368 7.31428346,13.965 C6.69425197,14.1505263 6.34407874,14.7931579 6.5296063,15.4034211 C6.71754331,16.0113158 7.37291339,16.3555263 7.99294488,16.1715789 C12.7765039,14.7442105 18.9495118,15.4523684 22.9925669,17.895 C23.5443307,18.2281579 24.1450866,18.0584211 24.6117165,17.5152632 L24.6117165,17.5160526 C25.0783465,16.9728947 24.7715433,16.2631579 24.2197795,15.93 Z" fill="#FFFFFF"></path>
                                <path d="M15.7449449,0.21 C7.34480315,0.209210526 0.75415748,6.83131579 0.75415748,14.9992105 C0.75415748,23.1686842 7.51908661,29.7907895 15.8292756,29.7907895 C24.1402677,29.7907895 30.8337165,23.1694737 30.8337165,14.9992105 C30.8337165,6.83210526 24.1450866,0.21 15.7449449,0.21 Z M8.24995276,20.4221053 C7.7455748,20.5365789 7.242,20.2255263 7.12634646,19.7289474 C7.01229921,19.2331579 7.32713386,18.7381579 7.83231496,18.6252632 C13.5643937,17.3368421 18.4804724,17.8910526 22.4472283,20.2736842 C22.8889606,20.5405263 23.030315,21.1073684 22.7580472,21.5415789 L22.7588504,21.5407895 C22.4889921,21.9765789 21.9107244,22.1131579 21.4697953,21.8478947 C17.935937,19.725 13.4872913,19.2465789 8.24995276,20.4221053 Z M24.6117165,17.5152632 C24.1450866,18.0576316 23.5435276,18.2273684 22.9917638,17.8942105 C18.9487087,15.4515789 12.7789134,14.7434211 7.99535433,16.1707895 C7.37532283,16.3547368 6.71754331,16.0113158 6.5296063,15.4026316 C6.34327559,14.7923684 6.69184252,14.1497368 7.31187402,13.9642105 C12.7765039,12.3347368 19.5751654,13.1234211 24.2205827,15.9292105 C24.7715433,16.2631579 25.0783465,16.9728947 24.6117165,17.5152632 Z M24.7586929,13.3207895 C19.9084724,10.4897368 11.9082992,10.2292105 7.27653543,11.6107895 C6.53362205,11.8318421 5.74653543,11.4197368 5.52165354,10.6886842 C5.29677165,9.95763158 5.71601575,9.18473684 6.45973228,8.96289474 C11.7741732,7.37605263 20.6112283,7.68315789 26.1947244,10.9413158 C26.8629449,11.3313158 27.0822047,12.1807895 26.686252,12.8368421 C26.2911024,13.4944737 25.4253071,13.7107895 24.7586929,13.3207895 Z" fill="#000000"></path>
                            </g>
                            <path d="M41.8448976,13.8639474 C39.248315,13.2544737 38.7848976,12.8273684 38.7848976,11.9289474 C38.7848976,11.0802632 39.5984882,10.5094737 40.8072283,10.5094737 C41.9782205,10.5094737 43.1395748,10.9436842 44.3579528,11.8357895 C44.3948976,11.8626316 44.4414803,11.8736842 44.4864567,11.8665789 C44.5322362,11.8594737 44.5707874,11.835 44.5988976,11.7978947 L45.8670709,10.0405263 C45.9184724,9.96789474 45.905622,9.86763158 45.8349449,9.81315789 C44.3852598,8.67 42.7532598,8.11342105 40.8457795,8.11342105 C38.040378,8.11342105 36.0806929,9.76894737 36.0806929,12.1357895 C36.0806929,14.6747368 37.7713228,15.5739474 40.692378,16.2678947 C43.1789291,16.8307895 43.5973701,17.3028947 43.5973701,18.1452632 C43.5973701,19.0792105 42.7484409,19.6602632 41.3838898,19.6602632 C39.8667402,19.6602632 38.6306929,19.1581579 37.2476693,17.9802632 C37.2131339,17.9510526 37.1665512,17.9376316 37.122378,17.94 C37.0774016,17.9439474 37.0348346,17.9644737 37.0059213,17.9992105 L35.5843465,19.6634211 C35.5249134,19.7321053 35.5329449,19.8355263 35.6004094,19.8947368 C37.2107244,21.3078947 39.1904882,22.0539474 41.3268661,22.0539474 C44.3499213,22.0539474 46.3031811,20.43 46.3031811,17.9178947 C46.308,15.7965789 45.0165354,14.6218421 41.8529291,13.8655263 L41.8448976,13.8639474 Z" id="Shape" fill="#000000"></path>
                            <path d="M53.1403937,11.3447368 C51.8296535,11.3447368 50.7550394,11.8515789 49.8699685,12.8921053 L49.8699685,11.7221053 C49.8699685,11.6297368 49.7928661,11.5547368 49.6988976,11.5547368 L47.3729764,11.5547368 C47.2790079,11.5547368 47.2035118,11.6297368 47.2035118,11.7221053 L47.2035118,24.7215789 C47.2035118,24.8139474 47.2790079,24.8889474 47.3729764,24.8889474 L49.6988976,24.8889474 C49.7928661,24.8889474 49.8699685,24.8131579 49.8699685,24.7215789 L49.8699685,20.6186842 C50.7558425,21.5960526 51.8312598,22.0736842 53.1403937,22.0736842 C55.5747402,22.0736842 58.0396063,20.2310526 58.0396063,16.71 C58.043622,13.1881579 55.5779528,11.3447368 53.1428031,11.3447368 L53.1403937,11.3447368 Z M55.3337953,16.71 C55.3337953,18.5028947 54.2093858,19.755 52.599874,19.755 C51.0096378,19.755 49.8105354,18.4460526 49.8105354,16.71 C49.8105354,14.9739474 51.0096378,13.6657895 52.599874,13.6657895 C54.1844882,13.665 55.3337953,14.9455263 55.3337953,16.71 Z" id="Shape" fill="#000000"></path>
                            <path d="M64.3555748,11.3447368 C61.2200787,11.3447368 58.7640472,13.7178947 58.7640472,16.7478947 C58.7640472,19.7447368 61.2032126,22.0934211 64.3178268,22.0934211 C67.4637638,22.0934211 69.9278268,19.7281579 69.9278268,16.71 C69.9278268,13.7013158 67.4806299,11.3455263 64.356378,11.3455263 L64.356378,11.3447368 L64.3555748,11.3447368 Z M64.3555748,19.7715789 C62.6882362,19.7715789 61.4305039,18.4547368 61.4305039,16.7084211 C61.4305039,14.9542105 62.6448661,13.6823684 64.3170236,13.6823684 C65.9956063,13.6823684 67.2613701,14.9992105 67.2613701,16.7471053 C67.2613701,18.5005263 66.0397795,19.7715789 64.3555748,19.7715789 Z" id="Shape" fill="#000000"></path>
                            <path d="M76.6228819,11.5539474 L74.0624409,11.5539474 L74.0624409,8.98105263 C74.0624409,8.88868421 73.9861417,8.81368421 73.8929764,8.81368421 L71.5670551,8.81368421 C71.4722835,8.81368421 71.3959843,8.88868421 71.3959843,8.98105263 L71.3959843,11.5539474 L70.278,11.5539474 C70.1840315,11.5539474 70.1085354,11.6289474 70.1085354,11.7213158 L70.1085354,13.6863158 C70.1085354,13.7786842 70.1840315,13.8536842 70.278,13.8536842 L71.3959843,13.8536842 L71.3959843,18.9394737 C71.3959843,20.9944737 72.4368661,22.0357895 74.4889134,22.0357895 C75.3233858,22.0357895 76.0148976,21.8660526 76.6678583,21.5028947 C76.7208661,21.4736842 76.7537953,21.4176316 76.7537953,21.3576316 L76.7537953,19.4865789 C76.7537953,19.4289474 76.7240787,19.3736842 76.6734803,19.3436842 C76.6228819,19.3121053 76.5586299,19.3105263 76.5072283,19.3357895 C76.059874,19.5576316 75.6261732,19.6594737 75.141874,19.6594737 C74.3949449,19.6594737 74.0624409,19.3263158 74.0624409,18.5802632 L74.0624409,13.8552632 L76.6228819,13.8552632 C76.7160472,13.8552632 76.7923465,13.7802632 76.7923465,13.6878947 L76.7923465,11.7228947 C76.7963622,11.6297368 76.7208661,11.5547368 76.6252913,11.5547368 L76.6228819,11.5539474 Z" id="Shape" fill="#000000"></path>
                            <path d="M85.5410551,11.5642105 L85.5410551,11.2484211 C85.5410551,10.3192105 85.9040787,9.90473684 86.7176693,9.90473684 C87.2027717,9.90473684 87.5922992,9.99947368 88.0284094,10.1415789 C88.0822205,10.1581579 88.1384409,10.1502632 88.181811,10.1186842 C88.2267874,10.0871053 88.251685,10.0365789 88.251685,9.98289474 L88.251685,8.05657895 C88.251685,7.98236842 88.2026929,7.91763158 88.1312126,7.89552632 C87.6710079,7.76131579 87.0806929,7.62236842 86.1980315,7.62236842 C84.0496063,7.62236842 82.9139528,8.81131579 82.9139528,11.0605263 L82.9139528,11.5444737 L81.7959685,11.5444737 C81.7028031,11.5444737 81.6257008,11.6202632 81.6257008,11.7126316 L81.6257008,13.6878947 C81.6257008,13.7802632 81.7028031,13.8552632 81.7959685,13.8552632 L82.9139528,13.8552632 L82.9139528,21.6994737 C82.9139528,21.7918421 82.9894488,21.8668421 83.0834173,21.8668421 L85.4093386,21.8668421 C85.5033071,21.8668421 85.5804094,21.7918421 85.5804094,21.6994737 L85.5804094,13.8552632 L87.752126,13.8552632 L91.0795748,21.6971053 C90.7012913,22.5213158 90.3310394,22.6847368 89.824252,22.6847368 C89.4138425,22.6847368 88.981748,22.5647368 88.5408189,22.3278947 C88.498252,22.305 88.450063,22.3010526 88.4050866,22.3152632 C88.3601102,22.3302632 88.3231654,22.3626316 88.3046929,22.4052632 L87.516,24.105 C87.478252,24.1855263 87.5095748,24.2794737 87.5890866,24.3213158 C88.4115118,24.7594737 89.1552283,24.9465789 90.0740315,24.9465789 C91.7911654,24.9465789 92.739685,24.1602632 93.5773701,22.0444737 L97.6131969,11.7939474 C97.6324724,11.7418421 97.6276535,11.6842105 97.5947244,11.6384211 C97.5625984,11.5926316 97.5111969,11.5657895 97.4557795,11.5657895 L95.0326772,11.5657895 C94.9603937,11.5657895 94.8961417,11.6107895 94.8720472,11.6778947 L92.3911181,18.6426316 L89.674063,11.6723684 C89.6491654,11.6076316 89.5841102,11.565 89.5150394,11.565 L85.540252,11.565 L85.540252,11.5642105 L85.5410551,11.5642105 Z" id="Shape" fill="#000000"></path>
                            <path d="M80.3711811,11.5539474 L78.0452598,11.5539474 C77.9512913,11.5539474 77.874189,11.6289474 77.874189,11.7213158 L77.874189,21.6978947 C77.874189,21.7902632 77.9512913,21.8652632 78.0452598,21.8652632 L80.3711811,21.8652632 C80.4643465,21.8652632 80.5414488,21.7902632 80.5414488,21.6978947 L80.5414488,11.7228947 C80.5414488,11.6305263 80.4659528,11.5547368 80.3711811,11.5539474 Z" id="Shape" fill="#000000"></path>
                            <path d="M79.2202677,7.01131579 C78.298252,7.01131579 77.5513228,7.74473684 77.5513228,8.65105263 C77.5513228,9.55736842 78.2990551,10.2915789 79.2202677,10.2915789 C80.1414803,10.2915789 80.8884094,9.55736842 80.8884094,8.65105263 C80.8884094,7.74473684 80.1422835,7.01131579 79.2202677,7.01131579 Z" id="Shape" fill="#000000"></path>
                            <path d="M99.600189,14.7615789 C98.6789764,14.7615789 97.9633701,14.0344737 97.9633701,13.1518421 C97.9633701,12.2692105 98.6894173,11.5342105 99.6090236,11.5342105 C100.530236,11.5342105 101.245843,12.2613158 101.245843,13.1431579 C101.245843,14.0257895 100.519795,14.7615789 99.600189,14.7615789 Z M99.6090236,11.6944737 C98.7697323,11.6944737 98.1360472,12.3497368 98.1360472,13.1518421 C98.1360472,13.9539474 98.7649134,14.6005263 99.600189,14.6005263 C100.437874,14.6005263 101.073969,13.9460526 101.073969,13.1431579 C101.074772,12.3410526 100.442693,11.6944737 99.6090236,11.6944737 Z M99.9720472,13.3089474 L100.434661,13.9460526 L100.044331,13.9460526 L99.6266929,13.3618421 L99.2684882,13.3618421 L99.2684882,13.9460526 L98.9424094,13.9460526 L98.9424094,12.2573684 L99.707811,12.2573684 C100.106976,12.2573684 100.370409,12.4578947 100.370409,12.7957895 C100.371213,13.0728947 100.208173,13.2418421 99.9728504,13.3089474 L99.9720472,13.3089474 Z M99.6957638,12.5471053 L99.2684882,12.5471053 L99.2684882,13.0815789 L99.6957638,13.0815789 C99.9085984,13.0815789 100.034693,12.9789474 100.034693,12.8139474 C100.03389,12.6394737 99.9069921,12.5471053 99.6957638,12.5471053 Z" id="Shape" fill="#000000"></path>
                        </g>
                    </g>
                </g>
            </g>
        </g>
    </g>
</svg>