<?xml version="1.0" encoding="UTF-8"?>
<svg width="120px" height="46px" viewBox="0 0 120 46" version="1.1" xmlns="http://www.w3.org/2000/svg" xmlns:xlink="http://www.w3.org/1999/xlink">
    <!-- Generator: Sketch 48.2 (47327) - http://www.bohemiancoding.com/sketch -->
    <title>itunes</title>
    <desc>Created with Sketch.</desc>
    <defs></defs>
    <g id="Desktop" stroke="none" stroke-width="1" fill="none" fill-rule="evenodd" transform="translate(-276.000000, -585.000000)">
        <g id="Group-10" transform="translate(136.000000, 584.000000)">
            <g id="itunes" transform="translate(140.000000, 1.000000)">
                <rect id="Rectangle-2-Copy-2" fill="#FFFFFF" x="0" y="0" width="120" height="46" rx="3"></rect>
                <g id="Group-4" transform="translate(7.000000, 5.000000)" fill="#000000" fill-rule="nonzero">
                    <g id="music-service_itunes">
                        <g id="icons">
                            <g id="Group">
                                <g transform="translate(0.854545, 0.900000)" id="Shape">
                                    <path d="M20.9296,15.8516 C20.8961182,12.14515 23.9764455,10.34195 24.1173,10.258 C22.3727818,7.72455 19.6688364,7.3784 18.7186455,7.3508 C16.4476545,7.11275 14.2447818,8.70435 13.0879273,8.70435 C11.9079818,8.70435 10.1265182,7.3738 8.20650909,7.4129 C5.73578182,7.45085 3.42438182,8.8757 2.15669091,11.0883 C-0.459509091,15.59975 1.49167273,22.2295 3.99819091,25.875 C5.25202727,27.66095 6.71714545,29.65505 8.63484545,29.58605 C10.5109818,29.50785 11.2117909,28.3935 13.4758545,28.3935 C15.7191364,28.3935 16.3772273,29.58605 18.3330273,29.5412 C20.3465545,29.50785 21.6142455,27.74605 22.8242091,25.94515 C24.2731636,23.897 24.8550545,21.8822 24.8781455,21.7787 C24.8308091,21.7626 20.9677,20.2929 20.9296,15.8516 Z"></path>
                                    <path d="M17.2350545,4.9519 C18.2441273,3.69495 18.9345455,1.9849 18.7428909,0.24955 C17.2823909,0.31395 15.4559,1.2558 14.4041091,2.48515 C13.4735455,3.56845 12.6422727,5.34405 12.8570182,7.01385 C14.4976273,7.13575 16.1821091,6.1893 17.2350545,4.9519 Z"></path>
                                </g>
                                <g transform="translate(37.800000, 1.900000)" id="Shape">
                                    <path d="M6.32575455,7.1558 C5.62263636,7.4203 4.88026364,7.55255 4.09863636,7.55255 C2.93716364,7.55255 2.02969091,7.2386 1.37621818,6.60955 C0.701963636,5.9598 0.364836364,5.06625 0.364836364,3.93005 C0.364836364,2.8019 0.725054545,1.8934 1.44664545,1.208 C2.16823636,0.52145 3.11611818,0.17875 4.2926,0.17875 C5.04536364,0.17875 5.6515,0.28915 6.11100909,0.5111 L5.85239091,1.4541 C5.40673636,1.254 4.88026364,1.15395 4.27066364,1.15395 C3.46017273,1.15395 2.81362727,1.38625 2.33333636,1.85085 C1.83803636,2.3373 1.59096364,3.0089 1.59096364,3.86565 C1.59096364,4.7224 1.82764545,5.3986 2.30100909,5.8908 C2.75243636,6.3623 3.37011818,6.59805 4.15174545,6.59805 C4.63896364,6.59805 4.9911,6.5486 5.20584545,6.44855 L5.20584545,4.48665 L3.88273636,4.48665 L3.88273636,3.57585 L6.3246,3.57585 L6.32575455,7.1558 Z"></path>
                                    <path d="M12.3848091,4.62695 C12.3848091,4.83395 12.3698,5.0099 12.3420909,5.1525 L8.85536364,5.1525 C8.87037273,5.66655 9.03893636,6.05985 9.36105455,6.33125 C9.65546364,6.5739 10.0353091,6.6958 10.5017455,6.6958 C11.0178273,6.6958 11.4877273,6.613 11.9114455,6.4497 L12.0950182,7.25355 C11.5997182,7.4686 11.0143636,7.57555 10.3401091,7.57555 C9.52961818,7.57555 8.89346364,7.3375 8.43049091,6.86255 C7.96867273,6.3876 7.73660909,5.7505 7.73660909,4.94895 C7.73660909,4.1635 7.95250909,3.50915 8.382,2.98705 C8.83458182,2.43045 9.44302727,2.151 10.2108,2.151 C10.9635636,2.151 11.5339091,2.4293 11.9218364,2.98705 C12.2301,3.43095 12.3848091,3.9772 12.3848091,4.62695 Z M11.2764455,4.3268 C11.2833727,3.9841 11.2083273,3.6874 11.0501545,3.43785 C10.8492636,3.11585 10.541,2.956 10.1253636,2.956 C9.74436364,2.956 9.4361,3.11355 9.19941818,3.4275 C9.00545455,3.6782 8.89115455,3.97835 8.85536364,4.32795 L11.2764455,4.32795 L11.2764455,4.3268 Z"></path>
                                    <path d="M16.5377091,3.1377 L15.2573182,3.1377 L15.2573182,5.66655 C15.2573182,6.3094 15.4836091,6.6314 15.9361909,6.6314 C16.1440091,6.6314 16.3160364,6.613 16.4522727,6.5785 L16.4834455,7.4571 C16.2548455,7.54335 15.9535091,7.5859 15.5805909,7.5859 C15.1222364,7.5859 14.7631727,7.44675 14.5045545,7.1673 C14.2459364,6.889 14.1177818,6.42095 14.1177818,5.76315 L14.1177818,3.1377 L13.3534727,3.1377 L13.3534727,2.26945 L14.1177818,2.26945 L14.1177818,1.31495 L15.2573182,0.97225 L15.2573182,2.26945 L16.5377091,2.26945 L16.5377091,3.1377 Z"></path>
                                    <path d="M22.2411636,0.71465 C22.2411636,0.92165 22.1718909,1.08955 22.0356545,1.21835 C21.9005727,1.34715 21.7239273,1.41155 21.5080273,1.41155 C21.3152182,1.41155 21.1512727,1.34485 21.0185,1.2126 C20.8857273,1.08035 20.8199182,0.91475 20.8199182,0.71465 C20.8199182,0.51455 20.8880364,0.3501 21.0254273,0.2213 C21.1605091,0.0925 21.3302273,0.0281 21.5311182,0.0281 C21.7320091,0.0281 21.9005727,0.0925 22.0368091,0.2213 C22.1718909,0.3501 22.2411636,0.51455 22.2411636,0.71465 Z M22.1107,7.4778 L20.9480727,7.4778 L20.9480727,2.26945 L22.1107,2.26945 L22.1107,7.4778 Z"></path>
                                    <path d="M26.6399818,3.1377 L25.3607455,3.1377 L25.3607455,5.66655 C25.3607455,6.3094 25.5870364,6.6314 26.0384636,6.6314 C26.2462818,6.6314 26.4194636,6.613 26.5545455,6.5785 L26.5857182,7.4571 C26.3582727,7.54335 26.0557818,7.5859 25.6840182,7.5859 C25.2245091,7.5859 24.8654455,7.44675 24.6068273,7.1673 C24.3482091,6.889 24.2200545,6.42095 24.2200545,5.76315 L24.2200545,3.1377 L23.4557455,3.1377 L23.4557455,2.26945 L24.2200545,2.26945 L24.2200545,1.31495 L25.3595909,0.97225 L25.3595909,2.26945 L26.6388273,2.26945 L26.6399818,3.1377 Z"></path>
                                    <path d="M35.8290091,4.8305 C35.8290091,5.6309 35.6004091,6.2887 35.1409,6.80275 C34.6594545,7.33175 34.0209909,7.59625 33.2255091,7.59625 C32.4577364,7.59625 31.8469818,7.3421 31.3909364,6.83495 C30.9337364,6.3278 30.7074455,5.68725 30.7074455,4.91675 C30.7074455,4.10945 30.9418182,3.4482 31.4117182,2.93415 C31.8804636,2.4201 32.5143091,2.1625 33.3109455,2.1625 C34.0787182,2.1625 34.6952455,2.41665 35.1628364,2.9238 C35.6073364,3.416 35.8290091,4.05195 35.8290091,4.8305 Z M34.6236636,4.86845 C34.6236636,4.3889 34.5197545,3.9772 34.3119364,3.6322 C34.0671727,3.21705 33.7196545,3.0089 33.2682273,3.0089 C32.8017909,3.0089 32.4461909,3.21705 32.2025818,3.6322 C31.9947636,3.97605 31.8897,4.3958 31.8897,4.88915 C31.8897,5.36985 31.9947636,5.78155 32.2025818,6.1254 C32.4542727,6.54055 32.8052545,6.7487 33.2566818,6.7487 C33.7023364,6.7487 34.0498545,6.5371 34.3003909,6.11505 C34.5162909,5.7643 34.6236636,5.348 34.6236636,4.86845 Z"></path>
                                    <path d="M41.9088455,7.4778 L40.7473727,7.4778 L40.7473727,4.4947 C40.7473727,3.5747 40.3952364,3.1147 39.6921182,3.1147 C39.3480636,3.1147 39.0686636,3.2412 38.8527636,3.49535 C38.6368636,3.74835 38.5306455,4.0462 38.5306455,4.38775 L38.5306455,7.4778 L37.3680182,7.4778 L37.3680182,3.7587 C37.3680182,3.301 37.3530091,2.8042 37.3253,2.26945 L38.3470727,2.26945 L38.4013364,3.08365 L38.4336636,3.08365 C38.5699,2.83065 38.7707909,2.62135 39.0351818,2.4546 C39.3503727,2.26025 39.7025091,2.1625 40.0904364,2.1625 C40.5776545,2.1625 40.9829,2.32005 41.3061727,2.634 C41.7079545,3.01925 41.9076909,3.59425 41.9076909,4.359 L41.9088455,7.4778 Z"></path>
                                </g>
                                <g transform="translate(37.800000, 13.550000)" id="Shape">
                                    <path d="M3.51674545,2.346 C3.51674545,2.7853 3.37242727,3.14065 3.08379091,3.4132 C2.79515455,3.68575 2.42223636,3.82145 1.96619091,3.82145 C1.55632727,3.82145 1.20996364,3.68115 0.928254545,3.4017 C0.646545455,3.12225 0.506845455,2.77035 0.506845455,2.346 C0.506845455,1.9228 0.651163636,1.57435 0.9398,1.3018 C1.22843636,1.02925 1.58519091,0.89355 2.01121818,0.89355 C2.43609091,0.89355 2.794,1.02925 3.08263636,1.3018 C3.37242727,1.5732 3.51674545,1.92165 3.51674545,2.346 Z M3.24311818,16.6773 L0.780472727,16.6773 L0.780472727,5.63845 L3.24311818,5.63845 L3.24311818,16.6773 Z"></path>
                                    <polygon points="16.4903727 3.4362 12.0904 3.4362 12.0904 16.6773 9.62775455 16.6773 9.62775455 3.4362 5.24971818 3.4362 5.24971818 1.3685 16.4903727 1.3685"></polygon>
                                    <path d="M26.7519727,16.6773 L24.5860455,16.6773 L24.4498091,14.99715 L24.4036273,14.99715 C23.6277727,16.284 22.4570636,16.92685 20.8926545,16.92685 C19.7981455,16.92685 18.9241545,16.58645 18.2706818,15.9045 C17.4948273,15.0719 17.1069,13.8161 17.1069,12.1348 L17.1069,5.6396 L19.5707,5.6396 L19.5707,11.72655 C19.5707,13.84715 20.3003727,14.9063 21.7597182,14.9063 C22.8542273,14.9063 23.6139182,14.37615 24.0411,13.317 C24.1473182,13.04445 24.2004273,12.73395 24.2004273,12.3855 L24.2004273,5.6396 L26.6630727,5.6396 L26.6630727,13.49755 C26.6607636,14.5429 26.6907818,15.60205 26.7519727,16.6773 Z"></path>
                                    <path d="M39.7048182,16.6773 L37.2421727,16.6773 L37.2421727,10.3569 C37.2421727,8.40765 36.4963364,7.4336 35.0069727,7.4336 C34.2761455,7.4336 33.6838636,7.70155 33.2278182,8.23745 C32.7717727,8.77335 32.5431727,9.4047 32.5431727,10.13035 L32.5431727,16.6773 L30.0805273,16.6773 L30.0805273,8.7952 C30.0805273,7.8269 30.0505091,6.7735 29.9893182,5.63845 L32.1564,5.63845 L32.2707,7.3646 L32.3388182,7.3646 C32.6274545,6.82755 33.0534818,6.3825 33.6157455,6.0329 C34.2842273,5.6189 35.0300636,5.4119 35.8509455,5.4119 C36.8854182,5.4119 37.7432455,5.7454 38.4267364,6.41125 C39.2776364,7.2289 39.7036636,8.4479 39.7036636,10.06825 L39.7036636,16.6773 L39.7048182,16.6773 Z"></path>
                                    <path d="M52.2674273,10.6352 C52.2674273,11.07565 52.2374091,11.44595 52.1762182,11.74955 L44.7882818,11.74955 C44.8183,12.8386 45.1762091,13.67235 45.8608545,14.24735 C46.4843091,14.7614 47.2890273,15.02015 48.2784727,15.02015 C49.3718273,15.02015 50.3682,14.8465 51.2652818,14.4969 L51.6532091,16.2012 C50.6037273,16.65545 49.3649,16.882 47.9355727,16.882 C46.2187636,16.882 44.8691,16.3783 43.8888909,15.37205 C42.9075273,14.36465 42.418,13.01455 42.418,11.3183 C42.418,9.6531 42.8752,8.26735 43.7872909,7.1622 C44.7444091,5.98115 46.0363455,5.39005 47.6631,5.39005 C49.2586818,5.39005 50.4674909,5.98 51.2883727,7.1622 C51.9406909,8.09945 52.2674273,9.25865 52.2674273,10.6352 Z M49.9190818,9.99925 C49.9340909,9.27245 49.7736091,8.64455 49.4399455,8.1144 C49.0139182,7.43245 48.3604455,7.09205 47.4795273,7.09205 C46.6736545,7.09205 46.0190273,7.4244 45.5191091,8.0914 C45.1080909,8.62155 44.8656364,9.2575 44.7882818,9.9981 L49.9190818,9.99925 Z"></path>
                                    <path d="M61.7774182,13.5056 C61.7774182,14.53255 61.3975727,15.35595 60.6378818,15.97465 C59.8770364,16.59335 58.8287091,16.90385 57.4905909,16.90385 C56.2275182,16.90385 55.1572545,16.6543 54.2751818,16.1552 L54.7993455,14.3382 C55.6502455,14.8534 56.5554091,15.10985 57.5136818,15.10985 C58.7756,15.10985 59.4059818,14.64985 59.4059818,13.72525 C59.4059818,13.317 59.2697455,12.98005 58.9961182,12.7144 C58.7236455,12.4499 58.2364273,12.1877 57.5367727,11.9301 C55.5601909,11.2033 54.5730545,10.143 54.5730545,8.75035 C54.5730545,7.79585 54.9378909,7.0012 55.6675636,6.36525 C56.3972364,5.7293 57.3624364,5.4119 58.5631636,5.4119 C59.6576727,5.4119 60.5928545,5.63385 61.3687091,6.0789 L60.8445455,7.84185 C60.1298818,7.41865 59.3771182,7.20475 58.5862545,7.20475 C58.0701727,7.20475 57.6660818,7.3255 57.3786,7.56815 C57.0888091,7.8085 56.9444909,8.119 56.9444909,8.4962 C56.9444909,8.87455 57.0968909,9.18505 57.4016909,9.42655 C57.6603091,9.6531 58.1613818,9.90265 58.9072182,10.17405 C60.8191455,10.90085 61.7774182,12.00945 61.7774182,13.5056 Z"></path>
                                </g>
                            </g>
                        </g>
                    </g>
                </g>
            </g>
        </g>
    </g>
</svg>