<?xml version="1.0" encoding="utf-8"?>
<!-- Generator: Adobe Illustrator 16.0.0, SVG Export Plug-In . SVG Version: 6.00 Build 0)  -->
<!DOCTYPE svg PUBLIC "-//W3C//DTD SVG 1.1//EN" "http://www.w3.org/Graphics/SVG/1.1/DTD/svg11.dtd">
<svg version="1.1" id="Layer_1" xmlns="http://www.w3.org/2000/svg" xmlns:xlink="http://www.w3.org/1999/xlink" x="0px" y="0px"
	 width="120px" height="46px" viewBox="0 0 120 46" enable-background="new 0 0 120 46" xml:space="preserve">
<title>itunes</title>
<desc>Created with Sketch.</desc>
<g id="Desktop" transform="translate(-276.000000, -585.000000)">
	<g id="Group-10" transform="translate(136.000000, 584.000000)">
		<g id="itunes" transform="translate(140.000000, 1.000000)">
			<path id="Rectangle-2-Copy-2" fill="#FFFFFF" d="M3,0h114c1.656,0,3,1.343,3,3v40c0,1.656-1.344,3-3,3H3c-1.657,0-3-1.344-3-3V3
				C0,1.343,1.343,0,3,0z"/>
			<g id="Group-4" transform="translate(7.000000, 5.000000)">
				<g id="music-service_itunes">
					<g id="icons">
						<g id="Group">
							<g id="Shape" transform="translate(0.854545, 0.900000)">
								<path fill="#FFFFFF" d="M20.93,15.851c-0.034-3.706,3.047-5.509,3.188-5.593c-1.744-2.534-4.448-2.88-5.398-2.907
									c-2.271-0.238-4.474,1.354-5.631,1.354c-1.18,0-2.961-1.331-4.881-1.292c-2.471,0.038-4.782,1.463-6.05,3.675
									C-0.46,15.6,1.492,22.229,3.998,25.875c1.254,1.785,2.719,3.779,4.637,3.711c1.876-0.078,2.577-1.193,4.841-1.193
									c2.243,0,2.901,1.193,4.857,1.148c2.014-0.033,3.281-1.795,4.491-3.596c1.449-2.049,2.031-4.063,2.054-4.167
									C24.831,21.762,20.968,20.293,20.93,15.851z"/>
								<path fill="#FFFFFF" d="M17.235,4.952c1.009-1.257,1.7-2.967,1.508-4.703c-1.461,0.064-3.287,1.006-4.339,2.236
									c-0.931,1.083-1.762,2.859-1.547,4.529C14.497,7.136,16.182,6.189,17.235,4.952z"/>
							</g>
							<g id="Shape_1_" transform="translate(37.800000, 1.900000)">
								<path fill="#FFFFFF" d="M6.326,7.156C5.623,7.42,4.88,7.553,4.098,7.553c-1.161,0-2.069-0.314-2.722-0.943
									C0.702,5.96,0.365,5.066,0.365,3.93c0-1.128,0.36-2.037,1.082-2.722c0.722-0.687,1.669-1.029,2.846-1.029
									c0.752,0,1.359,0.11,1.818,0.333L5.852,1.454c-0.446-0.2-0.972-0.3-1.582-0.3c-0.811,0-1.457,0.232-1.938,0.697
									C1.838,2.337,1.591,3.009,1.591,3.866s0.236,1.533,0.71,2.025C2.752,6.362,3.37,6.598,4.152,6.598
									c0.487,0,0.839-0.049,1.054-0.149V4.487H3.883V3.576h2.442L6.326,7.156z"/>
								<path fill="#FFFFFF" d="M12.385,4.627c0,0.207-0.015,0.383-0.042,0.526H8.855C8.87,5.666,9.039,6.06,9.361,6.331
									c0.294,0.243,0.674,0.364,1.141,0.364c0.516,0,0.986-0.083,1.41-0.246l0.184,0.804C11.6,7.469,11.014,7.576,10.34,7.576
									c-0.811,0-1.447-0.238-1.91-0.713C7.969,6.388,7.737,5.75,7.737,4.949c0-0.786,0.216-1.44,0.646-1.962
									c0.453-0.557,1.061-0.836,1.829-0.836c0.753,0,1.323,0.278,1.711,0.836C12.23,3.431,12.385,3.977,12.385,4.627z
									 M11.277,4.327c0.007-0.343-0.068-0.64-0.227-0.889c-0.201-0.322-0.509-0.482-0.925-0.482c-0.381,0-0.689,0.158-0.926,0.472
									c-0.194,0.25-0.309,0.551-0.344,0.9L11.277,4.327L11.277,4.327z"/>
								<path fill="#FFFFFF" d="M16.538,3.138h-1.281v2.529c0,0.643,0.227,0.965,0.679,0.965c0.207,0,0.38-0.018,0.516-0.053
									l0.031,0.878c-0.229,0.086-0.529,0.129-0.903,0.129c-0.458,0-0.817-0.139-1.076-0.418c-0.259-0.278-0.387-0.747-0.387-1.404
									V3.138h-0.765V2.269h0.765V1.315l1.139-0.343v1.297h1.281V3.138z"/>
								<path fill="#FFFFFF" d="M22.241,0.715c0,0.207-0.069,0.375-0.205,0.503c-0.135,0.129-0.312,0.193-0.527,0.193
									c-0.193,0-0.357-0.067-0.49-0.199C20.886,1.08,20.82,0.915,20.82,0.715s0.067-0.365,0.205-0.493
									c0.136-0.129,0.306-0.193,0.506-0.193c0.201,0,0.37,0.064,0.506,0.193C22.172,0.35,22.241,0.515,22.241,0.715z M22.11,7.478
									h-1.162V2.269h1.162V7.478z"/>
								<path fill="#FFFFFF" d="M26.639,3.138H25.36v2.529c0,0.643,0.227,0.965,0.678,0.965c0.209,0,0.381-0.018,0.517-0.053
									l0.031,0.878c-0.228,0.086-0.53,0.129-0.901,0.129c-0.46,0-0.818-0.139-1.078-0.418c-0.258-0.278-0.387-0.747-0.387-1.404
									V3.138h-0.764V2.269h0.764V1.315l1.141-0.343v1.297h1.279V3.138z"/>
								<path fill="#FFFFFF" d="M35.829,4.83c0,0.8-0.229,1.458-0.688,1.972c-0.482,0.529-1.121,0.793-1.916,0.793
									c-0.768,0-1.379-0.254-1.834-0.761c-0.457-0.507-0.684-1.147-0.684-1.918c0-0.808,0.234-1.469,0.704-1.983
									c0.469-0.514,1.103-0.771,1.899-0.771c0.768,0,1.384,0.254,1.852,0.761C35.607,3.416,35.829,4.052,35.829,4.83z
									 M34.624,4.869c0-0.479-0.104-0.891-0.312-1.236c-0.244-0.415-0.592-0.624-1.043-0.624c-0.467,0-0.822,0.208-1.066,0.624
									c-0.207,0.344-0.312,0.764-0.312,1.257c0,0.481,0.105,0.893,0.312,1.236c0.252,0.415,0.604,0.624,1.055,0.624
									c0.445,0,0.793-0.212,1.044-0.634C34.516,5.765,34.624,5.348,34.624,4.869z"/>
								<path fill="#FFFFFF" d="M41.909,7.478h-1.162V4.495c0-0.92-0.352-1.38-1.055-1.38c-0.344,0-0.623,0.126-0.84,0.381
									c-0.215,0.253-0.322,0.551-0.322,0.892v3.09h-1.162V3.759c0-0.458-0.016-0.955-0.043-1.489h1.021l0.055,0.814h0.033
									c0.136-0.253,0.336-0.462,0.601-0.629c0.315-0.194,0.667-0.292,1.056-0.292c0.486,0,0.893,0.158,1.215,0.472
									c0.402,0.385,0.602,0.96,0.602,1.725L41.909,7.478z"/>
							</g>
							<g id="Shape_2_" transform="translate(37.800000, 13.550000)">
								<path fill="#FFFFFF" d="M3.517,2.346c0,0.439-0.145,0.794-0.433,1.067C2.795,3.686,2.422,3.822,1.966,3.822
									c-0.41,0-0.756-0.141-1.038-0.42C0.647,3.122,0.507,2.77,0.507,2.346c0-0.423,0.145-0.771,0.433-1.044
									c0.289-0.273,0.646-0.409,1.071-0.409c0.425,0,0.783,0.136,1.072,0.409C3.372,1.573,3.517,1.922,3.517,2.346z M3.243,16.677
									H0.781V5.638h2.462V16.677z"/>
								<polygon fill="#FFFFFF" points="16.491,3.436 12.091,3.436 12.091,16.677 9.628,16.677 9.628,3.436 5.25,3.436 5.25,1.368 
									16.491,1.368 								"/>
								<path fill="#FFFFFF" d="M26.752,16.677h-2.165l-0.137-1.68h-0.047c-0.775,1.287-1.946,1.93-3.51,1.93
									c-1.096,0-1.969-0.34-2.623-1.021c-0.775-0.833-1.164-2.089-1.164-3.77V5.639h2.465v6.087c0,2.12,0.729,3.181,2.188,3.181
									c1.095,0,1.854-0.531,2.282-1.59c0.105-0.273,0.158-0.584,0.158-0.932V5.639h2.463v7.857
									C26.661,14.543,26.69,15.602,26.752,16.677z"/>
								<path fill="#FFFFFF" d="M39.705,16.677h-2.463v-6.32c0-1.949-0.745-2.923-2.235-2.923c-0.73,0-1.322,0.269-1.779,0.804
									c-0.455,0.536-0.684,1.168-0.684,1.893v6.547h-2.463V8.796c0-0.969-0.03-2.021-0.092-3.157h2.168l0.113,1.726h0.068
									c0.289-0.537,0.715-0.981,1.277-1.331c0.668-0.414,1.414-0.621,2.234-0.621c1.035,0,1.893,0.333,2.576,0.999
									c0.852,0.818,1.277,2.037,1.277,3.657L39.705,16.677L39.705,16.677z"/>
								<path fill="#FFFFFF" d="M52.267,10.636c0,0.439-0.03,0.811-0.091,1.113h-7.389c0.03,1.09,0.389,1.924,1.072,2.498
									c0.624,0.515,1.429,0.773,2.418,0.773c1.094,0,2.09-0.174,2.987-0.523l0.388,1.704c-1.049,0.454-2.288,0.681-3.718,0.681
									c-1.717,0-3.066-0.504-4.046-1.51c-0.982-1.008-1.472-2.357-1.472-4.054c0-1.665,0.458-3.051,1.37-4.155
									c0.957-1.182,2.248-1.773,3.875-1.773c1.596,0,2.805,0.59,3.625,1.773C51.94,8.099,52.267,9.259,52.267,10.636z
									 M49.919,9.999c0.016-0.727-0.145-1.354-0.479-1.885c-0.426-0.682-1.08-1.021-1.961-1.021c-0.806,0-1.461,0.332-1.96,0.998
									c-0.411,0.531-0.653,1.167-0.731,1.908H49.919z"/>
								<path fill="#FFFFFF" d="M61.778,13.506c0,1.026-0.381,1.851-1.141,2.47c-0.76,0.617-1.809,0.928-3.146,0.928
									c-1.264,0-2.334-0.249-3.216-0.748l0.524-1.816c0.851,0.515,1.756,0.771,2.714,0.771c1.263,0,1.893-0.461,1.893-1.385
									c0-0.408-0.136-0.746-0.41-1.012c-0.272-0.264-0.759-0.525-1.459-0.783c-1.977-0.727-2.964-1.787-2.964-3.18
									c0-0.955,0.365-1.75,1.095-2.386s1.694-0.953,2.896-0.953c1.094,0,2.029,0.222,2.806,0.667l-0.524,1.764
									c-0.715-0.424-1.467-0.638-2.258-0.638c-0.517,0-0.92,0.12-1.208,0.363c-0.29,0.24-0.435,0.551-0.435,0.929
									c0,0.377,0.152,0.688,0.457,0.93c0.26,0.227,0.76,0.477,1.506,0.748C60.819,10.901,61.778,12.01,61.778,13.506z"/>
							</g>
						</g>
					</g>
				</g>
			</g>
		</g>
	</g>
</g>
<g>
	<g>
		<path d="M29.351,30.436c-1.009,0.016-1.869,0.43-2.497,1.34H26.82v-4.316h-1.456v11.875h1.374V38.26h0.033
			c0.297,0.479,0.909,1.322,2.381,1.322c2.944,0,3.805-2.762,3.805-4.83C32.957,32.322,31.65,30.436,29.351,30.436z M29.119,38.326
			c-0.926,0-2.365-0.613-2.365-2.912c0-1.406,0.231-3.672,2.332-3.672c2.249,0,2.365,2.135,2.365,3.242
			C31.452,36.885,30.707,38.326,29.119,38.326z"/>
		<path d="M40.581,37.828V32.85c0-2.215-2.514-2.414-3.208-2.414c-2.134,0-3.507,0.811-3.573,2.879h1.34
			c0.099-0.664,0.331-1.672,1.985-1.672c1.373,0,2.034,0.496,2.034,1.406c0,0.859-0.414,0.992-0.761,1.027L36,34.371
			c-2.415,0.297-2.629,1.986-2.629,2.715c0,1.486,1.125,2.496,2.712,2.496c1.687,0,2.563-0.793,3.126-1.406
			c0.049,0.662,0.248,1.322,1.538,1.322c0.331,0,0.545-0.098,0.794-0.164v-1.059c-0.166,0.033-0.348,0.066-0.48,0.066
			C40.764,38.342,40.581,38.193,40.581,37.828z M39.125,36.34c0,1.158-1.323,2.033-2.679,2.033c-1.092,0-1.572-0.561-1.572-1.504
			c0-1.092,1.142-1.307,1.853-1.406c1.803-0.23,2.167-0.363,2.398-0.545L39.125,36.34L39.125,36.34L39.125,36.34z"/>
		<path d="M46.238,30.436c-1.488,0-2.299,1.01-2.613,1.473h-0.033v-1.225h-1.373v8.65h1.455v-4.713c0-2.35,1.456-2.879,2.283-2.879
			c1.422,0,1.853,0.762,1.853,2.266v5.326h1.456v-5.889C49.265,30.982,47.578,30.436,46.238,30.436z"/>
		<path d="M56.311,31.908h-0.033c-0.347-0.496-1.009-1.473-2.58-1.473c-2.299,0-3.605,1.887-3.605,4.316
			c0,2.068,0.86,4.83,3.804,4.83c0.845,0,1.837-0.266,2.464-1.439h0.034v1.191h1.372V27.457h-1.455L56.311,31.908L56.311,31.908
			L56.311,31.908z M53.929,38.326c-1.588,0-2.332-1.441-2.332-3.342c0-1.107,0.116-3.242,2.365-3.242c2.1,0,2.332,2.266,2.332,3.672
			C56.294,37.713,54.855,38.326,53.929,38.326z"/>
		<path d="M62.977,31.742c1.224,0,1.869,0.693,2.051,1.852h1.406c-0.117-1.504-0.977-3.158-3.242-3.158
			c-2.861,0-4.152,2.133-4.152,4.812c0,2.498,1.439,4.334,3.871,4.334c2.53,0,3.374-1.936,3.523-3.309h-1.406
			c-0.248,1.322-1.092,2.051-2.068,2.051c-2,0-2.364-1.836-2.364-3.324C60.595,33.463,61.174,31.742,62.977,31.742z"/>
		<path d="M73.793,37.828V32.85c0-2.215-2.514-2.414-3.209-2.414c-2.133,0-3.506,0.811-3.572,2.879h1.34
			c0.1-0.664,0.332-1.672,1.986-1.672c1.371,0,2.033,0.496,2.033,1.406c0,0.859-0.414,0.992-0.76,1.027l-2.398,0.295
			c-2.416,0.297-2.631,1.986-2.631,2.715c0,1.486,1.125,2.496,2.713,2.496c1.688,0,2.564-0.793,3.125-1.406
			c0.051,0.662,0.248,1.322,1.539,1.322c0.33,0,0.545-0.098,0.795-0.164v-1.059c-0.166,0.033-0.35,0.066-0.48,0.066
			C73.977,38.342,73.793,38.193,73.793,37.828z M72.338,36.34c0,1.158-1.324,2.033-2.68,2.033c-1.092,0-1.57-0.561-1.57-1.504
			c0-1.092,1.141-1.307,1.852-1.406c1.803-0.23,2.166-0.363,2.398-0.545V36.34z"/>
		<path d="M84.395,30.436c-1.34,0-1.918,0.596-2.645,1.406c-0.25-0.463-0.744-1.406-2.299-1.406s-2.301,1.01-2.615,1.473h-0.033
			v-1.225h-1.371v8.65h1.455v-4.713c0-2.35,1.455-2.879,2.281-2.879c1.074,0,1.357,0.877,1.357,1.604v5.988h1.455v-5.275
			c0-1.158,0.811-2.316,2.035-2.316c1.24,0,1.604,0.811,1.604,2.002v5.59h1.455v-5.988C87.074,30.916,85.322,30.436,84.395,30.436z"
			/>
		<path d="M92.252,30.436c-1.57,0-2.232,0.977-2.58,1.473h-0.033v-1.225h-1.373v12.074h1.457v-4.334h0.031
			c0.381,0.611,1.143,1.158,2.299,1.158c2.945,0,3.805-2.764,3.805-4.83C95.857,32.322,94.551,30.436,92.252,30.436z M92.02,38.326
			c-0.926,0-2.365-0.613-2.365-2.912c0-1.406,0.232-3.672,2.332-3.672c2.25,0,2.365,2.135,2.365,3.242
			C94.352,36.885,93.607,38.326,92.02,38.326z"/>
	</g>
	<polygon points="25.34,27.131 53.724,27.131 64.764,3.244 36.38,3.244 	"/>
	<g>
		<path d="M72.545,9.054c-1.971,0.033-3.648,0.841-4.875,2.615h-0.065V3.243h-2.841v23.181h2.68v-2.1h0.064
			c0.581,0.936,1.775,2.582,4.648,2.582c5.748,0,7.426-5.39,7.426-9.425C79.582,12.736,77.031,9.054,72.545,9.054z M72.092,24.453
			c-1.807,0-4.615-1.194-4.615-5.681c0-2.744,0.451-7.167,4.551-7.167c4.391,0,4.617,4.165,4.617,6.328
			C76.645,21.644,75.191,24.453,72.092,24.453z"/>
		<path d="M89.086,11.605c2.389,0,3.648,1.356,4.004,3.616h2.744c-0.227-2.938-1.906-6.168-6.33-6.168c-5.584,0-8.1,4.166-8.1,9.395
			c0,4.876,2.807,8.458,7.553,8.458c4.939,0,6.586-3.777,6.877-6.456H93.09c-0.486,2.582-2.131,4.002-4.035,4.002
			c-3.906,0-4.617-3.583-4.617-6.489C84.438,14.961,85.568,11.605,89.086,11.605z"/>
	</g>
</g>
</svg>
