<?xml version="1.0" encoding="utf-8"?>
<!-- Generator: Adobe Illustrator 16.0.0, SVG Export Plug-In . SVG Version: 6.00 Build 0)  -->
<!DOCTYPE svg PUBLIC "-//W3C//DTD SVG 1.1//EN" "http://www.w3.org/Graphics/SVG/1.1/DTD/svg11.dtd">
<svg version="1.1" id="Layer_1" xmlns="http://www.w3.org/2000/svg" xmlns:xlink="http://www.w3.org/1999/xlink" x="0px" y="0px"
	 width="163px" height="571px" viewBox="0 0 163 571" enable-background="new 0 0 163 571" xml:space="preserve">
<title>Page 1</title>
<desc>Created with Sketch.</desc>
<g id="Page-1_1_">
	<g id="Desktop-Copy-7" transform="translate(-10.000000, -17.000000)">
		
			<g id="Page-1" transform="translate(91.500000, 302.500000) rotate(-90.000000) translate(-91.500000, -302.500000) translate(-193.000000, 222.000000)">
			<path id="Fill-1" fill="none" stroke="#000000" d="M0,1.022v158.292c0,0.563,0.459,1.021,1.023,1.021h49.047
				c0.566,0,1.024-0.458,1.024-1.021v-25.159c0-0.564-0.458-1.022-1.024-1.022H28.359V1.022C28.359,0.457,27.9,0,27.334,0H1.024
				C0.459,0,0,0.457,0,1.022"/>
			<path id="Fill-3" fill="none" stroke="#000000" d="M158.232,33.775l-0.015,11.062c0,0.564,0.459,1.022,1.025,1.022h1.385h21.15
				h1.386c0.564,0,1.024-0.458,1.024-1.022v-6.804c0-25.034-8.965-37.551-26.894-37.551c-0.413,0-0.812,0.014-1.217,0.026
				c-0.395-0.013-0.79-0.026-1.193-0.026c-19.111,0-29.1,12.527-29.968,37.583l0.001,0.354c0.294,6.761,1.618,13.029,3.973,18.806
				c2.691,6.604,9.557,19.515,20.595,38.734c5.711,10.348,8.567,19.366,8.567,27.053v-1.301c0,4.18-1.188,6.543-3.552,7.104
				c-2.447-0.562-3.677-2.925-3.677-7.104v-21.184c0-0.562-0.458-1.021-1.024-1.021h-1.386h-21.148h-1.386
				c-0.566,0-1.024,0.459-1.024,1.021v20.889c0,25.627,9.678,38.438,29.036,38.438c0.396,0,0.782-0.014,1.17-0.026
				c0.411,0.013,0.82,0.026,1.24,0.026c20.074,0,30.111-14.094,30.111-42.281v-0.621c0-9.362-1.473-17.74-4.418-25.132
				c-2.945-7.394-9.841-20.403-20.687-39.031l-4.114-6.846c0,0-6.107-8.006-6.107-11.109V34.67c-0.167-2.29,0.637-5.996,3.552-5.996
				c2.758,0,3.677,2.924,3.677,7.104"/>
			<path id="Fill-5" fill="none" stroke="#000000" d="M240.029,1.202h-52.536h-1.385c-0.566,0-1.025,0.458-1.025,1.021v28.005
				c0,0.565,0.459,1.022,1.025,1.022h1.385h12.089v126.86c0,0.565,0.458,1.021,1.024,1.021h1.386h23.539h1.385
				c0.566,0,1.025-0.456,1.025-1.021V31.251h12.088h1.386c0.565,0,1.024-0.458,1.024-1.022V2.223c0-0.563-0.459-1.021-1.024-1.021
				H240.029z"/>
			<path id="Fill-7" fill="none" stroke="#000000" d="M89.502,31.295l2.455,66.393c0.022,0.58-0.441,1.061-1.022,1.061H88.2
				c-0.58,0-1.044-0.479-1.024-1.058L89.502,31.295z M85.933,128.169h7.206c0.535,0,0.98,0.411,1.021,0.942l2.284,29.689
				c0.041,0.532,0.486,0.943,1.021,0.943h25.678c0.603,0,1.076-0.516,1.021-1.113L109.76,1.569c-0.048-0.526-0.49-0.929-1.02-0.929
				H70.248c-0.53,0-0.973,0.402-1.021,0.929L54.748,159.744h26.829c0.535,0,0.979-0.41,1.021-0.941l2.312-29.691
				C84.951,128.578,85.396,128.169,85.933,128.169L85.933,128.169z"/>
			<path id="Fill-9" fill="none" stroke="#000000" d="M288.898,0.944h-23.539h-1.386c-0.565,0-1.024,0.458-1.024,1.021v124.09
				c0,2.812-0.816,4.457-2.42,4.977c-1.604-0.52-2.419-2.164-2.419-4.977v-26.08c0-0.564-0.459-1.021-1.025-1.021h-1.386h-20.49
				h-1.386c-0.566,0-1.025,0.457-1.025,1.021v27.56c0,9.956,2.704,17.987,8.115,24.099c5.408,6.11,11.602,9.164,18.576,9.164
				c0.467,0,0.923-0.013,1.38-0.027c0.342,0.015,0.685,0.027,1.03,0.027c19.606,0,29.409-12.713,29.409-38.143V1.965
				c0-0.563-0.458-1.021-1.024-1.021H288.898z"/>
			<path id="Fill-11" fill="none" stroke="#000000" d="M401.209,42.487v46.05c0,6.359-2.085,10.006-6.239,10.969V31.519
				C399.124,32.481,401.209,36.131,401.209,42.487 M421.042,8.335c-5.244-4.927-13.276-7.392-24.096-7.392h-2.41H369.68h-1.386
				c-0.565,0-1.024,0.458-1.024,1.021v157.09c0,0.564,0.459,1.022,1.024,1.022h1.386h22.879h1.386c0.566,0,1.025-0.458,1.025-1.022
				v-28.938c0.478,0,0.938-0.01,1.403-0.016c13.26,0.178,21.974-2.51,26.111-8.078c4.283-5.766,6.426-15.597,6.426-29.494V38.496
				C428.91,23.318,426.286,13.265,421.042,8.335"/>
			<path id="Fill-13" fill="none" stroke="#000000" d="M560.583,0.864h-8.191h-6.45c-0.566,0-1.025,0.458-1.025,1.021v52.39
				l-8.059-52.543c-0.076-0.499-0.506-0.868-1.013-0.868h-34.224c-0.565,0-1.024,0.458-1.024,1.021v157.062
				c0,0.563,0.459,1.021,1.024,1.021h22.026c0.566,0,1.025-0.458,1.025-1.021V87.807l11.128,71.297
				c0.078,0.498,0.507,0.865,1.012,0.865h3.527h11.263h16.365c0.565,0,1.024-0.458,1.024-1.021V1.886
				c0-0.564-0.459-1.021-1.024-1.021H560.583z"/>
			<path id="Fill-15" fill="none" stroke="#000000" d="M328.107,31.295l2.456,66.393c0.021,0.58-0.442,1.061-1.023,1.061h-2.734
				c-0.579,0-1.043-0.479-1.023-1.058L328.107,31.295z M324.537,128.169h7.206c0.535,0,0.981,0.411,1.022,0.942l2.283,29.689
				c0.041,0.532,0.487,0.943,1.022,0.943h25.678c0.603,0,1.076-0.516,1.021-1.113L348.365,1.569c-0.049-0.526-0.49-0.929-1.02-0.929
				h-38.492c-0.53,0-0.973,0.402-1.021,0.929l-14.479,158.175h26.828c0.535,0,0.98-0.41,1.022-0.941l2.312-29.691
				C323.557,128.578,324.001,128.169,324.537,128.169L324.537,128.169z"/>
			<path id="Fill-17" fill="none" stroke="#000000" d="M461.268,31.295l2.455,66.393c0.022,0.58-0.441,1.061-1.022,1.061h-2.734
				c-0.58,0-1.044-0.479-1.024-1.058L461.268,31.295z M457.698,128.169h7.207c0.535,0,0.98,0.411,1.021,0.942l2.284,29.689
				c0.041,0.532,0.486,0.943,1.021,0.943h25.678c0.603,0,1.076-0.516,1.021-1.113L481.526,1.569c-0.048-0.526-0.49-0.929-1.02-0.929
				h-38.492c-0.53,0-0.973,0.402-1.021,0.929l-14.479,158.175h26.829c0.535,0,0.979-0.41,1.021-0.941l2.312-29.691
				C456.717,128.578,457.161,128.169,457.698,128.169L457.698,128.169z"/>
		</g>
	</g>
</g>
</svg>
