<?xml version="1.0" encoding="UTF-8"?>
<svg width="144px" height="46px" viewBox="0 0 144 46" version="1.1" xmlns="http://www.w3.org/2000/svg" xmlns:xlink="http://www.w3.org/1999/xlink">
    <!-- Generator: Sketch 48.2 (47327) - http://www.bohemiancoding.com/sketch -->
    <title>Group 7</title>
    <desc>Created with Sketch.</desc>
    <defs></defs>
    <g id="Desktop" stroke="none" stroke-width="1" fill="none" fill-rule="evenodd" transform="translate(-415.000000, -585.000000)">
        <g id="Group-10" transform="translate(136.000000, 584.000000)">
            <g id="Group-7" transform="translate(279.000000, 0.000000)">
                <rect id="Rectangle-2-Copy-3" fill="#FFFFFF" x="0" y="1" width="144" height="46" rx="3"></rect>
                <g id="Group-3" fill-rule="nonzero">
                    <g id="music-service_applemusic">
                        <g id="icons" transform="translate(6.000000, 8.000000)">
                            <g id="XMLID_16_" transform="translate(120.720000, 15.638889)" fill="#000000">
                                <g id="XMLID_59_">
                                    <g id="XMLID_33_">
                                        <g id="XMLID_1_">
                                            <path d="M7.536384,4.22072222 C7.368192,3.24583333 6.5952,2.51694444 5.33376,2.51694444 C3.8592,2.51694444 2.882304,3.73669444 2.882304,5.66027778 C2.882304,7.62713889 3.867264,8.81386111 5.352192,8.81386111 C6.542208,8.81386111 7.324416,8.22505556 7.537536,7.15336111 L9.385344,7.15336111 C9.172224,9.09516667 7.599744,10.3946389 5.334912,10.3946389 C2.670336,10.3946389 0.928512,8.59405556 0.928512,5.66027778 C0.928512,2.788 2.669184,0.925916667 5.31648,0.925916667 C7.714944,0.925916667 9.206784,2.42013889 9.366912,4.21958333 L7.536384,4.21958333 L7.536384,4.22072222 Z" id="Shape"></path>
                                        </g>
                                    </g>
                                </g>
                            </g>
                            <g id="Outline">
                                <g id="_Group_">
                                    <g id="_Group_2" transform="translate(0.912000, 0.833333)">
                                        <path d="M26.31168,4.25716667 C25.674624,2.76294444 24.395904,1.62975 22.824576,1.16508333 C21.799296,0.91225 20.744064,0.801777778 19.68768,0.838222222 L8.008704,0.838222222 C6.95232,0.801777778 5.897088,0.911111111 4.871808,1.16508333 C3.30048,1.62975 2.02176,2.76408333 1.384704,4.25716667 C0.989568,5.42794444 0.815616,6.66022222 0.870912,7.89363889 L0.870912,19.4396944 C0.814464,20.6731111 0.988416,21.9053889 1.384704,23.0761667 C2.02176,24.5703889 3.30048,25.7035833 4.871808,26.16825 C5.897088,26.4210833 6.95232,26.5315556 8.008704,26.4951111 L19.68768,26.4951111 C20.744064,26.5315556 21.799296,26.4222222 22.824576,26.16825 C24.395904,25.7035833 25.674624,24.56925 26.31168,23.0761667 C26.706816,21.9053889 26.880768,20.6731111 26.825472,19.4396944 L26.825472,7.89363889 C26.880768,6.66022222 26.706816,5.42794444 26.31168,4.25716667 Z" id="_Path_2" fill="#000000"></path>
                                        <g id="_Group_4" transform="translate(32.256000, 1.138889)" fill="#000000">
                                            <g id="Group">
                                                <polygon id="Shape" points="4.277376 7.17727778 0.446976 7.17727778 0.446976 1.10472222 1.400832 1.10472222 1.400832 6.31058333 4.278528 6.31058333"></polygon>
                                                <path d="M5.395968,1.23911111 C5.376384,0.915666667 5.626368,0.638916667 5.952384,0.619555556 C6.279552,0.600194444 6.559488,0.847333333 6.579072,1.16963889 C6.598656,1.49308333 6.348672,1.76983333 6.022656,1.78919444 C6.011136,1.79033333 5.999616,1.79033333 5.988096,1.79033333 C5.677056,1.80627778 5.413248,1.56938889 5.39712,1.26188889 C5.395968,1.25505556 5.395968,1.24708333 5.395968,1.23911111 Z M5.531904,2.59438889 L6.443136,2.59438889 L6.443136,7.17727778 L5.531904,7.17727778 L5.531904,2.59438889 Z" id="Shape"></path>
                                                <path d="M9.616896,2.50669444 C10.659456,2.50669444 11.340288,2.98730556 11.430144,3.79477778 L10.553472,3.79477778 C10.468224,3.45766667 10.136448,3.24355556 9.616896,3.24355556 C9.105408,3.24355556 8.718336,3.48386111 8.718336,3.84033333 C8.718336,4.11480556 8.953344,4.28677778 9.454464,4.39952778 L10.225152,4.57605556 C11.106432,4.77877778 11.52,5.15233333 11.52,5.82541667 C11.52,6.68869444 10.706688,7.26497222 9.599616,7.26497222 C8.497152,7.26497222 7.778304,6.77297222 7.696512,5.96094444 L8.612352,5.96094444 C8.774784,6.35841667 9.191808,6.59530556 9.620352,6.53380556 C10.190592,6.53380556 10.594944,6.28211111 10.594944,5.91538889 C10.594944,5.64091667 10.377216,5.46438889 9.914112,5.35619444 L9.105408,5.17169444 C8.22528,4.96555556 7.81632,4.57377778 7.81632,3.89158333 C7.81632,3.07955556 8.569728,2.50669444 9.616896,2.50669444 Z" id="Shape"></path>
                                                <path d="M13.965696,1.45436111 L13.965696,2.61602778 L14.97024,2.61602778 L14.97024,3.37794444 L13.965696,3.37794444 L13.965696,5.73430556 C13.965696,6.21491667 14.166144,6.42561111 14.621184,6.42561111 C14.737536,6.42561111 14.853888,6.41877778 14.97024,6.40397222 L14.97024,7.15677778 C14.805504,7.18638889 14.639616,7.20233333 14.472576,7.20347222 C13.45536,7.20347222 13.051008,6.85041667 13.051008,5.9655 L13.051008,3.37794444 L12.31488,3.37794444 L12.31488,2.61602778 L13.051008,2.61602778 L13.051008,1.45436111 L13.965696,1.45436111 Z" id="Shape"></path>
                                                <path d="M20.052864,5.93930556 C19.795968,6.80372222 18.949248,7.36177778 18.043776,7.26497222 C16.881408,7.29572222 15.91488,6.38916667 15.883776,5.24002778 C15.88032,5.12613889 15.887232,5.01338889 15.902208,4.90063889 C15.745536,3.74352778 16.566912,2.67980556 17.737344,2.52491667 C17.837568,2.51125 17.937792,2.50555556 18.039168,2.50669444 C19.329408,2.50669444 20.10816,3.37794444 20.10816,4.81636111 L20.10816,5.13183333 L16.835328,5.13183333 L16.835328,5.18308333 C16.77888,5.84933333 17.278848,6.43472222 17.952768,6.49166667 C17.991936,6.49508333 18.031104,6.49622222 18.070272,6.49622222 C18.517248,6.54861111 18.952704,6.32880556 19.172736,5.94044444 L20.052864,5.93930556 Z M16.835328,4.46330556 L19.176192,4.46330556 C19.22112,3.854 18.759168,3.32441667 18.142848,3.28 C18.107136,3.27772222 18.071424,3.27658333 18.035712,3.27772222 C17.381376,3.26861111 16.844544,3.78566667 16.835328,4.43255556 C16.835328,4.44280556 16.835328,4.45305556 16.835328,4.46330556 Z" id="Shape"></path>
                                                <path d="M21.345408,2.59438889 L22.226688,2.59438889 L22.226688,3.32213889 L22.294656,3.32213889 C22.531968,2.78572222 23.088384,2.45886111 23.678208,2.50555556 C24.5088,2.44405556 25.232256,3.05905556 25.294464,3.88019444 C25.302528,3.98952778 25.299072,4.1 25.282944,4.20933333 L25.282944,7.17613889 L24.367104,7.17613889 L24.367104,4.43597222 C24.367104,3.70025 24.043392,3.33466667 23.367168,3.33466667 C22.7808,3.30733333 22.283136,3.75605556 22.255488,4.33461111 C22.253184,4.38813889 22.254336,4.44166667 22.260096,4.49519444 L22.260096,7.175 L21.344256,7.175 L21.344256,2.59438889 L21.345408,2.59438889 Z" id="Shape"></path>
                                                <path d="M28.996992,4.88355556 C28.992384,4.54872222 29.043072,4.21616667 29.1456,3.89727778 C29.57184,2.78458333 30.829824,2.22538889 31.955328,2.64677778 C32.535936,2.86430556 32.994432,3.31644444 33.216768,3.88930556 C33.3216,4.21047222 33.372288,4.54644444 33.368832,4.88355556 C33.486336,6.07711111 32.602752,7.13855556 31.395456,7.25472222 C30.18816,7.37088889 29.114496,6.49736111 28.996992,5.30380556 C28.983168,5.16486111 28.983168,5.02363889 28.996992,4.88355556 Z M32.427648,4.88355556 C32.44032,4.54188889 32.366592,4.20363889 32.21568,3.89613889 C31.883904,3.33238889 31.153536,3.14219444 30.583296,3.47019444 C30.404736,3.57269444 30.256128,3.71961111 30.152448,3.89613889 C30.001536,4.20363889 29.92896,4.54188889 29.941632,4.88355556 C29.941632,5.88577778 30.388608,6.46205556 31.18464,6.46205556 C31.976064,6.46205556 32.427648,5.88122222 32.427648,4.88355556 Z" id="Shape"></path>
                                                <path d="M34.60608,2.59438889 L35.48736,2.59438889 L35.48736,3.32213889 L35.555328,3.32213889 C35.79264,2.78572222 36.349056,2.45886111 36.93888,2.50555556 C37.769472,2.44405556 38.492928,3.05905556 38.555136,3.88019444 C38.5632,3.98952778 38.559744,4.1 38.543616,4.20933333 L38.543616,7.17613889 L37.627776,7.17613889 L37.627776,4.43597222 C37.627776,3.70025 37.304064,3.33466667 36.62784,3.33466667 C36.041472,3.30733333 35.543808,3.75605556 35.51616,4.33461111 C35.513856,4.38813889 35.515008,4.44166667 35.520768,4.49519444 L35.520768,7.175 L34.60608,7.175 L34.60608,2.59438889 Z" id="Shape"></path>
                                            </g>
                                            <g id="_Group_5" transform="translate(0.000000, 10.250000)">
                                                <g id="Group">
                                                    <path d="M8.313984,10.2716389 L3.428352,10.2716389 L2.255616,13.6962778 L0.185472,13.6962778 L4.814208,1.025 L6.96384,1.025 L11.591424,13.6962778 L9.48672,13.6962778 L8.313984,10.2716389 Z M3.935232,8.69086111 L7.808256,8.69086111 L5.89824,3.13308333 L5.845248,3.13308333 L3.935232,8.69086111 Z" id="Shape"></path>
                                                    <path d="M21.575808,9.07808333 C21.575808,11.9503611 20.02176,13.7930833 17.676288,13.7930833 C16.464384,13.8568611 15.3216,13.2293333 14.736384,12.177 L14.691456,12.177 L14.691456,16.7530556 L12.772224,16.7530556 L12.772224,4.45875 L14.629248,4.45875 L14.629248,5.99511111 L14.66496,5.99511111 C15.276672,4.95075 16.420608,4.32322222 17.640576,4.36308333 C20.012544,4.36308333 21.575808,6.21491667 21.575808,9.07808333 Z M19.603584,9.07808333 C19.603584,7.20802778 18.626688,5.97916667 17.133696,5.97916667 C15.668352,5.97916667 14.68224,7.23422222 14.68224,9.07808333 C14.68224,10.9401667 15.668352,12.18725 17.133696,12.18725 C18.626688,12.1861111 19.603584,10.9663611 19.603584,9.07808333 Z" id="Shape"></path>
                                                    <path d="M31.853952,9.07808333 C31.853952,11.9503611 30.299904,13.7930833 27.954432,13.7930833 C26.742528,13.8568611 25.599744,13.2293333 25.014528,12.177 L24.9696,12.177 L24.9696,16.7530556 L23.050368,16.7530556 L23.050368,4.45875 L24.907392,4.45875 L24.907392,5.99511111 L24.943104,5.99511111 C25.554816,4.95075 26.698752,4.32322222 27.91872,4.36308333 C30.290688,4.36308333 31.853952,6.21491667 31.853952,9.07808333 Z M29.881728,9.07808333 C29.881728,7.20802778 28.904832,5.97916667 27.41184,5.97916667 C25.946496,5.97916667 24.960384,7.23422222 24.960384,9.07808333 C24.960384,10.9401667 25.946496,12.18725 27.41184,12.18725 C28.904832,12.1861111 29.881728,10.9663611 29.881728,9.07808333 Z" id="Shape"></path>
                                                    <polygon id="Shape" points="33.398784 1.025 35.318016 1.025 35.318016 13.6962778 33.398784 13.6962778 33.398784 1.025"></polygon>
                                                    <path d="M45.3024,10.9823056 C44.866944,12.7885833 43.147008,13.9969444 41.277312,13.8113056 C38.559744,13.8113056 36.872064,12.0107222 36.872064,9.12022222 C36.872064,6.22288889 38.56896,4.34258333 41.197824,4.34258333 C43.78176,4.34258333 45.408384,6.09875 45.408384,8.90041667 L45.408384,9.55072222 L38.808576,9.55072222 L38.808576,9.66575 C38.68992,10.9891389 39.678336,12.1565 41.01696,12.2738056 C41.118336,12.2829167 41.220864,12.2851944 41.32224,12.2817778 C42.253056,12.3683333 43.13088,11.8398889 43.479936,10.9823056 L45.3024,10.9823056 Z M38.817792,8.22619444 L43.490304,8.22619444 C43.559424,7.00075 42.610176,5.95183333 41.370624,5.8835 C41.313024,5.88008333 41.255424,5.87894444 41.197824,5.88008333 C39.891456,5.87211111 38.825856,6.91305556 38.817792,8.20455556 C38.817792,8.21252778 38.817792,8.21936111 38.817792,8.22619444 Z" id="Shape"></path>
                                                    <polygon id="Shape" points="61.956864 13.6974167 61.956864 4.37105556 61.895808 4.37105556 58.030848 13.60175 56.556288 13.60175 52.683264 4.37105556 52.622208 4.37105556 52.622208 13.6974167 50.810112 13.6974167 50.810112 1.025 53.110656 1.025 57.257856 11.0267222 57.32928 11.0267222 61.469568 1.025 63.779328 1.025 63.779328 13.6962778 61.956864 13.6962778"></polygon>
                                                    <path d="M73.995264,13.6974167 L72.15552,13.6974167 L72.15552,12.1063889 L72.111744,12.1063889 C71.606016,13.2202222 70.445952,13.899 69.214464,13.8021944 C67.496832,13.9001389 66.023424,12.6040833 65.9232,10.9048611 C65.912832,10.73175 65.91744,10.5575 65.937024,10.3855278 L65.937024,4.45875 L67.856256,4.45875 L67.856256,10.0176667 C67.856256,11.4230556 68.531328,12.1690278 69.853824,12.1690278 C71.0496,12.20775 72.049536,11.2818333 72.088704,10.0996667 C72.09216,9.99261111 72.087552,9.88669444 72.07488,9.77963889 L72.07488,4.45761111 L73.994112,4.45761111 L73.995264,13.6974167 Z" id="Shape"></path>
                                                    <path d="M79.449984,4.35283333 C81.520128,4.35283333 83.002752,5.48602778 83.04768,7.11805556 L81.243648,7.11805556 C81.16416,6.30147222 80.46144,5.8015 79.39584,5.8015 C78.356736,5.8015 77.663232,6.27413889 77.663232,6.99619444 C77.663232,7.54855556 78.125184,7.91755556 79.094016,8.15558333 L80.666496,8.51547222 C82.550016,8.96419444 83.2608,9.64752778 83.2608,11.0016667 C83.2608,12.669 81.661824,13.8113056 79.37856,13.8113056 C77.175936,13.8113056 75.693312,12.6951944 75.550464,11.0096389 L77.450112,11.0096389 C77.583744,11.8956944 78.302592,12.37175 79.467264,12.37175 C80.612352,12.37175 81.332352,11.9059444 81.332352,11.1679444 C81.332352,10.5962222 80.977536,10.2898611 79.999488,10.0438611 L78.329088,9.63955556 C76.641408,9.23525 75.788928,8.38336111 75.788928,7.10211111 C75.79008,5.46780556 77.273856,4.35283333 79.449984,4.35283333 Z" id="Shape"></path>
                                                    <path d="M84.756096,2.02494444 C84.744576,1.41677778 85.233024,0.913388889 85.849344,0.902 C86.464512,0.890611111 86.973696,1.3735 86.985216,1.98280556 C86.996736,2.59097222 86.508288,3.09436111 85.891968,3.10575 C85.882752,3.10575 85.874688,3.10575 85.865472,3.10575 C85.258368,3.10916667 84.761856,2.62627778 84.756096,2.02494444 Z M84.907008,4.45875 L86.825088,4.45875 L86.825088,13.6974167 L84.907008,13.6974167 L84.907008,4.45875 Z" id="Shape"></path>
                                                    <path d="M95.088384,7.63738889 C94.914432,6.58961111 93.955968,5.84819444 92.88576,5.93361111 C91.4112,5.93361111 90.434304,7.15336111 90.434304,9.07694444 C90.434304,11.0438056 91.419264,12.2305278 92.904192,12.2305278 C93.961728,12.3341667 94.91904,11.6075556 95.089536,10.5700278 L96.937344,10.5700278 C96.697728,12.5573889 94.90176,13.9935278 92.886912,13.8113056 C90.222336,13.8113056 88.480512,12.0107222 88.480512,9.07694444 C88.480512,6.20466667 90.221184,4.34258333 92.86848,4.34258333 C94.898304,4.17288889 96.695424,5.63408333 96.918912,7.63625 L95.088384,7.63625 L95.088384,7.63738889 Z" id="Shape"></path>
                                                </g>
                                            </g>
                                        </g>
                                        <path d="M19.888128,5.48602778 C19.880064,5.01794444 19.615104,4.69677778 19.152,4.77308333 C19.152,4.77308333 11.645568,6.22744444 10.7712,6.40738889 C10.203264,6.52469444 10.014336,6.87547222 10.025856,7.46541667 C10.023552,7.51552778 10.025856,17.0821944 10.025856,17.0821944 C10.025856,18.0456944 9.199872,17.8167778 8.102016,18.0901111 C6.236928,18.5536389 6.183936,19.3690833 6.061824,19.6264722 C5.871744,20.65375 6.113664,21.7915 7.523712,22.1251944 C8.102016,22.2618611 8.463744,22.1992222 9.038592,22.0898889 C9.967104,21.9133611 10.43712,21.4635 10.844928,20.6207222 C11.03616,20.2243889 11.054592,19.5626944 11.054592,19.1287778 C11.05344,16.3931667 11.05344,13.7919444 11.05344,11.0563333 C11.05344,10.5996389 11.181312,10.4561389 11.636352,10.3661667 C13.859712,9.93111111 16.095744,9.471 18.317952,9.03936111 C18.81792,8.94141667 18.872064,9.20677778 18.872064,9.70675 C18.873216,11.7544722 18.864,15.1050833 18.864,15.4285278 C18.864,16.5822222 16.677504,15.8715556 15.276672,17.1516667 C14.784768,17.6277222 14.69952,18.5228889 14.852736,19.0114722 C15.088896,19.7563056 15.577344,20.2175556 16.32384,20.3758611 C16.799616,20.4783611 18.367488,20.6480556 19.293696,19.5330833 C19.919232,18.7791389 19.874304,18.3213056 19.874304,17.6322778 L19.888128,5.48602778 Z" id="Shape" fill="#FFFFFF"></path>
                                    </g>
                                </g>
                            </g>
                        </g>
                    </g>
                </g>
            </g>
        </g>
    </g>
</svg>